solid OpenSCAD_Model
  facet normal -1 0 0
    outer loop
      vertex 2 -2.15651 0
      vertex 2 2.15651 4
      vertex 2 2.15651 0
    endloop
  endfacet
  facet normal -1 -0 0
    outer loop
      vertex 2 2.15651 4
      vertex 2 -2.15651 0
      vertex 2 -2.15651 4
    endloop
  endfacet
  facet normal 0 0 -1
    outer loop
      vertex 0 -6 0
      vertex 2 -2.15651 0
      vertex 6 0 0
    endloop
  endfacet
  facet normal 0 0 -1
    outer loop
      vertex 2 -2.15651 0
      vertex 0 -6 0
      vertex 1.63893 -2.45284 0
    endloop
  endfacet
  facet normal 0 0 -1
    outer loop
      vertex 0 -6 0
      vertex 1.12892 -2.72544 0
      vertex 1.63893 -2.45284 0
    endloop
  endfacet
  facet normal 0 0 -1
    outer loop
      vertex 0 -6 0
      vertex 0.575516 -2.89332 0
      vertex 1.12892 -2.72544 0
    endloop
  endfacet
  facet normal 0 0 -1
    outer loop
      vertex 0 -6 0
      vertex 0 -2.95 0
      vertex 0.575516 -2.89332 0
    endloop
  endfacet
  facet normal 0 0 -1
    outer loop
      vertex 0 -6 0
      vertex -0.575516 -2.89332 0
      vertex 0 -2.95 0
    endloop
  endfacet
  facet normal 0 0 -1
    outer loop
      vertex 0 -6 0
      vertex -1.12892 -2.72544 0
      vertex -0.575516 -2.89332 0
    endloop
  endfacet
  facet normal 0 0 -1
    outer loop
      vertex 0 -6 0
      vertex -1.63893 -2.45284 0
      vertex -1.12892 -2.72544 0
    endloop
  endfacet
  facet normal 0 0 -1
    outer loop
      vertex 0 -6 0
      vertex -2 -2.15651 0
      vertex -1.63893 -2.45284 0
    endloop
  endfacet
  facet normal 0 0 -1
    outer loop
      vertex -2 -2.15651 0
      vertex -6 0 0
      vertex -2 2.15651 0
    endloop
  endfacet
  facet normal 0 0 -1
    outer loop
      vertex -6 0 0
      vertex -2 -2.15651 0
      vertex 0 -6 0
    endloop
  endfacet
  facet normal 0 0 -1
    outer loop
      vertex 2 2.15651 0
      vertex 6 0 0
      vertex 2 -2.15651 0
    endloop
  endfacet
  facet normal 0 0 -1
    outer loop
      vertex 0 6 0
      vertex 2 2.15651 0
      vertex 1.63893 2.45284 0
    endloop
  endfacet
  facet normal 0 0 -1
    outer loop
      vertex 2 2.15651 0
      vertex 0 6 0
      vertex 6 0 0
    endloop
  endfacet
  facet normal 0 0 -1
    outer loop
      vertex 1.12892 2.72544 0
      vertex 0 6 0
      vertex 1.63893 2.45284 0
    endloop
  endfacet
  facet normal 0 0 -1
    outer loop
      vertex 0.575516 2.89332 0
      vertex 0 6 0
      vertex 1.12892 2.72544 0
    endloop
  endfacet
  facet normal 0 0 -1
    outer loop
      vertex 0 2.95 0
      vertex 0 6 0
      vertex 0.575516 2.89332 0
    endloop
  endfacet
  facet normal 0 0 -1
    outer loop
      vertex -0.575516 2.89332 0
      vertex 0 6 0
      vertex 0 2.95 0
    endloop
  endfacet
  facet normal 0 0 -1
    outer loop
      vertex -1.12892 2.72544 0
      vertex 0 6 0
      vertex -0.575516 2.89332 0
    endloop
  endfacet
  facet normal 0 0 -1
    outer loop
      vertex -1.63893 2.45284 0
      vertex 0 6 0
      vertex -1.12892 2.72544 0
    endloop
  endfacet
  facet normal 0 0 -1
    outer loop
      vertex -2 2.15651 0
      vertex 0 6 0
      vertex -1.63893 2.45284 0
    endloop
  endfacet
  facet normal 0 0 -1
    outer loop
      vertex 0 6 0
      vertex -2 2.15651 0
      vertex -6 0 0
    endloop
  endfacet
  facet normal 1 -0 0
    outer loop
      vertex -2 -2.15651 4
      vertex -2 2.15651 0
      vertex -2 2.15651 4
    endloop
  endfacet
  facet normal 1 0 0
    outer loop
      vertex -2 2.15651 0
      vertex -2 -2.15651 4
      vertex -2 -2.15651 0
    endloop
  endfacet
  facet normal -0.0980114 -0.995185 0
    outer loop
      vertex 0 2.95 0
      vertex 0.575516 2.89332 4
      vertex 0 2.95 4
    endloop
  endfacet
  facet normal -0.0980114 -0.995185 -0
    outer loop
      vertex 0.575516 2.89332 4
      vertex 0 2.95 0
      vertex 0.575516 2.89332 0
    endloop
  endfacet
  facet normal -0.634403 -0.773003 0
    outer loop
      vertex 1.63893 2.45284 0
      vertex 2 2.15651 4
      vertex 1.63893 2.45284 4
    endloop
  endfacet
  facet normal -0.634403 -0.773003 -0
    outer loop
      vertex 2 2.15651 4
      vertex 1.63893 2.45284 0
      vertex 2 2.15651 0
    endloop
  endfacet
  facet normal 0.634403 -0.773003 0
    outer loop
      vertex -2 2.15651 0
      vertex -1.63893 2.45284 4
      vertex -2 2.15651 4
    endloop
  endfacet
  facet normal 0.634403 -0.773003 0
    outer loop
      vertex -1.63893 2.45284 4
      vertex -2 2.15651 0
      vertex -1.63893 2.45284 0
    endloop
  endfacet
  facet normal 0.290295 -0.956937 0
    outer loop
      vertex -1.12892 2.72544 0
      vertex -0.575516 2.89332 4
      vertex -1.12892 2.72544 4
    endloop
  endfacet
  facet normal 0.290295 -0.956937 0
    outer loop
      vertex -0.575516 2.89332 4
      vertex -1.12892 2.72544 0
      vertex -0.575516 2.89332 0
    endloop
  endfacet
  facet normal -0.290295 -0.956937 0
    outer loop
      vertex 0.575516 2.89332 0
      vertex 1.12892 2.72544 4
      vertex 0.575516 2.89332 4
    endloop
  endfacet
  facet normal -0.290295 -0.956937 -0
    outer loop
      vertex 1.12892 2.72544 4
      vertex 0.575516 2.89332 0
      vertex 1.12892 2.72544 0
    endloop
  endfacet
  facet normal -0.471389 -0.881926 0
    outer loop
      vertex 1.12892 2.72544 0
      vertex 1.63893 2.45284 4
      vertex 1.12892 2.72544 4
    endloop
  endfacet
  facet normal -0.471389 -0.881926 -0
    outer loop
      vertex 1.63893 2.45284 4
      vertex 1.12892 2.72544 0
      vertex 1.63893 2.45284 0
    endloop
  endfacet
  facet normal 0 0 -1
    outer loop
      vertex 1.12892 -2.72544 4
      vertex 2 -2.15651 4
      vertex 1.63893 -2.45284 4
    endloop
  endfacet
  facet normal -0 0 -1
    outer loop
      vertex 2 -2.15651 4
      vertex 1.12892 -2.72544 4
      vertex 2 2.15651 4
    endloop
  endfacet
  facet normal 0 0 -1
    outer loop
      vertex 1.12892 2.72544 4
      vertex 2 2.15651 4
      vertex 1.12892 -2.72544 4
    endloop
  endfacet
  facet normal 0 0 -1
    outer loop
      vertex 2 2.15651 4
      vertex 1.12892 2.72544 4
      vertex 1.63893 2.45284 4
    endloop
  endfacet
  facet normal 0 0 -1
    outer loop
      vertex 0.575516 -2.89332 4
      vertex 1.12892 2.72544 4
      vertex 1.12892 -2.72544 4
    endloop
  endfacet
  facet normal 0 0 -1
    outer loop
      vertex 0.575516 -2.89332 4
      vertex 0.575516 2.89332 4
      vertex 1.12892 2.72544 4
    endloop
  endfacet
  facet normal 0 0 -1
    outer loop
      vertex 0 -2.95 4
      vertex 0.575516 2.89332 4
      vertex 0.575516 -2.89332 4
    endloop
  endfacet
  facet normal 0 0 -1
    outer loop
      vertex 0 -2.95 4
      vertex 0 2.95 4
      vertex 0.575516 2.89332 4
    endloop
  endfacet
  facet normal 0 0 -1
    outer loop
      vertex -0.575516 -2.89332 4
      vertex 0 2.95 4
      vertex 0 -2.95 4
    endloop
  endfacet
  facet normal 0 0 -1
    outer loop
      vertex -0.575516 -2.89332 4
      vertex -0.575516 2.89332 4
      vertex 0 2.95 4
    endloop
  endfacet
  facet normal 0 0 -1
    outer loop
      vertex -1.12892 -2.72544 4
      vertex -0.575516 2.89332 4
      vertex -0.575516 -2.89332 4
    endloop
  endfacet
  facet normal 0 0 -1
    outer loop
      vertex -1.12892 -2.72544 4
      vertex -1.12892 2.72544 4
      vertex -0.575516 2.89332 4
    endloop
  endfacet
  facet normal 0 0 -1
    outer loop
      vertex -2 -2.15651 4
      vertex -1.12892 -2.72544 4
      vertex -1.63893 -2.45284 4
    endloop
  endfacet
  facet normal 0 0 -1
    outer loop
      vertex -1.12892 -2.72544 4
      vertex -2 -2.15651 4
      vertex -1.12892 2.72544 4
    endloop
  endfacet
  facet normal 0 0 -1
    outer loop
      vertex -2 2.15651 4
      vertex -1.12892 2.72544 4
      vertex -2 -2.15651 4
    endloop
  endfacet
  facet normal 0 0 -1
    outer loop
      vertex -1.12892 2.72544 4
      vertex -2 2.15651 4
      vertex -1.63893 2.45284 4
    endloop
  endfacet
  facet normal 0.471389 -0.881926 0
    outer loop
      vertex -1.63893 2.45284 0
      vertex -1.12892 2.72544 4
      vertex -1.63893 2.45284 4
    endloop
  endfacet
  facet normal 0.471389 -0.881926 0
    outer loop
      vertex -1.12892 2.72544 4
      vertex -1.63893 2.45284 0
      vertex -1.12892 2.72544 0
    endloop
  endfacet
  facet normal 0.0980114 -0.995185 0
    outer loop
      vertex -0.575516 2.89332 0
      vertex 0 2.95 4
      vertex -0.575516 2.89332 4
    endloop
  endfacet
  facet normal 0.0980114 -0.995185 0
    outer loop
      vertex 0 2.95 4
      vertex -0.575516 2.89332 0
      vertex 0 2.95 0
    endloop
  endfacet
  facet normal -0.0980114 0.995185 0
    outer loop
      vertex 0.575516 -2.89332 0
      vertex 0 -2.95 4
      vertex 0.575516 -2.89332 4
    endloop
  endfacet
  facet normal -0.0980114 0.995185 0
    outer loop
      vertex 0 -2.95 4
      vertex 0.575516 -2.89332 0
      vertex 0 -2.95 0
    endloop
  endfacet
  facet normal -0.634403 0.773003 0
    outer loop
      vertex 2 -2.15651 0
      vertex 1.63893 -2.45284 4
      vertex 2 -2.15651 4
    endloop
  endfacet
  facet normal -0.634403 0.773003 0
    outer loop
      vertex 1.63893 -2.45284 4
      vertex 2 -2.15651 0
      vertex 1.63893 -2.45284 0
    endloop
  endfacet
  facet normal 0.634403 0.773003 -0
    outer loop
      vertex -1.63893 -2.45284 0
      vertex -2 -2.15651 4
      vertex -1.63893 -2.45284 4
    endloop
  endfacet
  facet normal 0.634403 0.773003 0
    outer loop
      vertex -2 -2.15651 4
      vertex -1.63893 -2.45284 0
      vertex -2 -2.15651 0
    endloop
  endfacet
  facet normal 0.290295 0.956937 -0
    outer loop
      vertex -0.575516 -2.89332 0
      vertex -1.12892 -2.72544 4
      vertex -0.575516 -2.89332 4
    endloop
  endfacet
  facet normal 0.290295 0.956937 0
    outer loop
      vertex -1.12892 -2.72544 4
      vertex -0.575516 -2.89332 0
      vertex -1.12892 -2.72544 0
    endloop
  endfacet
  facet normal -0.290295 0.956937 0
    outer loop
      vertex 1.12892 -2.72544 0
      vertex 0.575516 -2.89332 4
      vertex 1.12892 -2.72544 4
    endloop
  endfacet
  facet normal -0.290295 0.956937 0
    outer loop
      vertex 0.575516 -2.89332 4
      vertex 1.12892 -2.72544 0
      vertex 0.575516 -2.89332 0
    endloop
  endfacet
  facet normal 0.471389 0.881926 -0
    outer loop
      vertex -1.12892 -2.72544 0
      vertex -1.63893 -2.45284 4
      vertex -1.12892 -2.72544 4
    endloop
  endfacet
  facet normal 0.471389 0.881926 0
    outer loop
      vertex -1.63893 -2.45284 4
      vertex -1.12892 -2.72544 0
      vertex -1.63893 -2.45284 0
    endloop
  endfacet
  facet normal 0.0980114 0.995185 -0
    outer loop
      vertex 0 -2.95 0
      vertex -0.575516 -2.89332 4
      vertex 0 -2.95 4
    endloop
  endfacet
  facet normal 0.0980114 0.995185 0
    outer loop
      vertex -0.575516 -2.89332 4
      vertex 0 -2.95 0
      vertex -0.575516 -2.89332 0
    endloop
  endfacet
  facet normal -0.471389 0.881926 0
    outer loop
      vertex 1.63893 -2.45284 0
      vertex 1.12892 -2.72544 4
      vertex 1.63893 -2.45284 4
    endloop
  endfacet
  facet normal -0.471389 0.881926 0
    outer loop
      vertex 1.12892 -2.72544 4
      vertex 1.63893 -2.45284 0
      vertex 1.12892 -2.72544 0
    endloop
  endfacet
  facet normal -0.707107 0.707107 0
    outer loop
      vertex -6 0 0
      vertex 0 6 80
      vertex 0 6 0
    endloop
  endfacet
  facet normal -0.707107 0.707107 0
    outer loop
      vertex 0 6 80
      vertex -6 0 0
      vertex -6 0 80
    endloop
  endfacet
  facet normal 0.707107 0.707107 0
    outer loop
      vertex 6 0 80
      vertex 0 6 0
      vertex 0 6 80
    endloop
  endfacet
  facet normal 0.707107 0.707107 0
    outer loop
      vertex 0 6 0
      vertex 6 0 80
      vertex 6 0 0
    endloop
  endfacet
  facet normal 0 0 1
    outer loop
      vertex 6 0 80
      vertex 3.91259 0.831646 80
      vertex 4 0 80
    endloop
  endfacet
  facet normal 0 0 1
    outer loop
      vertex 6 0 80
      vertex 3.65418 1.62695 80
      vertex 3.91259 0.831646 80
    endloop
  endfacet
  facet normal 0 0 1
    outer loop
      vertex 6 0 80
      vertex 3.23607 2.35114 80
      vertex 3.65418 1.62695 80
    endloop
  endfacet
  facet normal 0 0 1
    outer loop
      vertex 6 0 80
      vertex 2.67652 2.97258 80
      vertex 3.23607 2.35114 80
    endloop
  endfacet
  facet normal 0 0 1
    outer loop
      vertex 0 6 80
      vertex 2.67652 2.97258 80
      vertex 6 0 80
    endloop
  endfacet
  facet normal 0 0 1
    outer loop
      vertex 0 6 80
      vertex 2 3.4641 80
      vertex 2.67652 2.97258 80
    endloop
  endfacet
  facet normal 0 0 1
    outer loop
      vertex 0 6 80
      vertex 1.23607 3.80423 80
      vertex 2 3.4641 80
    endloop
  endfacet
  facet normal 0 0 1
    outer loop
      vertex 0 6 80
      vertex 0.418114 3.97809 80
      vertex 1.23607 3.80423 80
    endloop
  endfacet
  facet normal 0 0 1
    outer loop
      vertex 0 6 80
      vertex -0.418114 3.97809 80
      vertex 0.418114 3.97809 80
    endloop
  endfacet
  facet normal 0 0 1
    outer loop
      vertex 0 6 80
      vertex -1.23607 3.80423 80
      vertex -0.418114 3.97809 80
    endloop
  endfacet
  facet normal 0 0 1
    outer loop
      vertex 0 6 80
      vertex -2 3.4641 80
      vertex -1.23607 3.80423 80
    endloop
  endfacet
  facet normal 0 0 1
    outer loop
      vertex 0 6 80
      vertex -2.67652 2.97258 80
      vertex -2 3.4641 80
    endloop
  endfacet
  facet normal 0 0 1
    outer loop
      vertex -6 0 80
      vertex -2.67652 2.97258 80
      vertex 0 6 80
    endloop
  endfacet
  facet normal 0 0 1
    outer loop
      vertex -3.91259 0.831646 80
      vertex -6 0 80
      vertex -4 0 80
    endloop
  endfacet
  facet normal 0 0 1
    outer loop
      vertex -3.65418 1.62695 80
      vertex -6 0 80
      vertex -3.91259 0.831646 80
    endloop
  endfacet
  facet normal 0 0 1
    outer loop
      vertex -3.23607 2.35114 80
      vertex -6 0 80
      vertex -3.65418 1.62695 80
    endloop
  endfacet
  facet normal 0 0 1
    outer loop
      vertex -2.67652 2.97258 80
      vertex -6 0 80
      vertex -3.23607 2.35114 80
    endloop
  endfacet
  facet normal 0 0 1
    outer loop
      vertex 3.91259 -0.831646 80
      vertex 6 0 80
      vertex 4 0 80
    endloop
  endfacet
  facet normal 0 0 1
    outer loop
      vertex 3.65418 -1.62695 80
      vertex 6 0 80
      vertex 3.91259 -0.831646 80
    endloop
  endfacet
  facet normal 0 0 1
    outer loop
      vertex 3.23607 -2.35114 80
      vertex 6 0 80
      vertex 3.65418 -1.62695 80
    endloop
  endfacet
  facet normal 0 0 1
    outer loop
      vertex 2.67652 -2.97258 80
      vertex 6 0 80
      vertex 3.23607 -2.35114 80
    endloop
  endfacet
  facet normal -0 0 1
    outer loop
      vertex 2.67652 -2.97258 80
      vertex 0 -6 80
      vertex 6 0 80
    endloop
  endfacet
  facet normal -0 0 1
    outer loop
      vertex 2 -3.4641 80
      vertex 0 -6 80
      vertex 2.67652 -2.97258 80
    endloop
  endfacet
  facet normal -0 0 1
    outer loop
      vertex 1.23607 -3.80423 80
      vertex 0 -6 80
      vertex 2 -3.4641 80
    endloop
  endfacet
  facet normal -0 0 1
    outer loop
      vertex 0.418114 -3.97809 80
      vertex 0 -6 80
      vertex 1.23607 -3.80423 80
    endloop
  endfacet
  facet normal -0 0 1
    outer loop
      vertex -0.418114 -3.97809 80
      vertex 0 -6 80
      vertex 0.418114 -3.97809 80
    endloop
  endfacet
  facet normal 0 0 1
    outer loop
      vertex -1.23607 -3.80423 80
      vertex 0 -6 80
      vertex -0.418114 -3.97809 80
    endloop
  endfacet
  facet normal 0 0 1
    outer loop
      vertex -2 -3.4641 80
      vertex 0 -6 80
      vertex -1.23607 -3.80423 80
    endloop
  endfacet
  facet normal 0 0 1
    outer loop
      vertex -2.67652 -2.97258 80
      vertex 0 -6 80
      vertex -2 -3.4641 80
    endloop
  endfacet
  facet normal 0 0 1
    outer loop
      vertex -6 0 80
      vertex -2.67652 -2.97258 80
      vertex -3.23607 -2.35114 80
    endloop
  endfacet
  facet normal 0 0 1
    outer loop
      vertex -2.67652 -2.97258 80
      vertex -6 0 80
      vertex 0 -6 80
    endloop
  endfacet
  facet normal 0 0 1
    outer loop
      vertex -3.65418 -1.62695 80
      vertex -6 0 80
      vertex -3.23607 -2.35114 80
    endloop
  endfacet
  facet normal 0 0 1
    outer loop
      vertex -3.91259 -0.831646 80
      vertex -6 0 80
      vertex -3.65418 -1.62695 80
    endloop
  endfacet
  facet normal -0 0 1
    outer loop
      vertex -6 0 80
      vertex -3.91259 -0.831646 80
      vertex -4 0 80
    endloop
  endfacet
  facet normal -0.707107 -0.707107 0
    outer loop
      vertex 0 -6 0
      vertex -6 0 80
      vertex -6 0 0
    endloop
  endfacet
  facet normal -0.707107 -0.707107 0
    outer loop
      vertex -6 0 80
      vertex 0 -6 0
      vertex 0 -6 80
    endloop
  endfacet
  facet normal 0.707107 -0.707107 0
    outer loop
      vertex 0 -6 80
      vertex 6 0 0
      vertex 6 0 80
    endloop
  endfacet
  facet normal 0.707107 -0.707107 0
    outer loop
      vertex 6 0 0
      vertex 0 -6 80
      vertex 0 -6 0
    endloop
  endfacet
  facet normal 0.994522 0.104529 0
    outer loop
      vertex 4 0 95
      vertex 3.91259 0.831646 80
      vertex 3.91259 0.831646 95
    endloop
  endfacet
  facet normal 0.994522 0.104529 0
    outer loop
      vertex 3.91259 0.831646 80
      vertex 4 0 95
      vertex 4 0 80
    endloop
  endfacet
  facet normal -0.994522 0.104529 0
    outer loop
      vertex -4 0 80
      vertex -3.91259 0.831646 95
      vertex -3.91259 0.831646 80
    endloop
  endfacet
  facet normal -0.994522 0.104529 0
    outer loop
      vertex -3.91259 0.831646 95
      vertex -4 0 80
      vertex -4 0 95
    endloop
  endfacet
  facet normal 0 1 -0
    outer loop
      vertex 0.418114 3.97809 80
      vertex -0.418114 3.97809 95
      vertex 0.418114 3.97809 95
    endloop
  endfacet
  facet normal 0 1 0
    outer loop
      vertex -0.418114 3.97809 95
      vertex 0.418114 3.97809 80
      vertex -0.418114 3.97809 80
    endloop
  endfacet
  facet normal 0 -1 0
    outer loop
      vertex -0.418114 -3.97809 80
      vertex 0.418114 -3.97809 95
      vertex -0.418114 -3.97809 95
    endloop
  endfacet
  facet normal 0 -1 -0
    outer loop
      vertex 0.418114 -3.97809 95
      vertex -0.418114 -3.97809 80
      vertex 0.418114 -3.97809 80
    endloop
  endfacet
  facet normal 0.743143 0.669133 0
    outer loop
      vertex 3.23607 2.35114 95
      vertex 2.67652 2.97258 80
      vertex 2.67652 2.97258 95
    endloop
  endfacet
  facet normal 0.743143 0.669133 0
    outer loop
      vertex 2.67652 2.97258 80
      vertex 3.23607 2.35114 95
      vertex 3.23607 2.35114 80
    endloop
  endfacet
  facet normal -0.743143 0.669133 0
    outer loop
      vertex -3.23607 2.35114 80
      vertex -2.67652 2.97258 95
      vertex -2.67652 2.97258 80
    endloop
  endfacet
  facet normal -0.743143 0.669133 0
    outer loop
      vertex -2.67652 2.97258 95
      vertex -3.23607 2.35114 80
      vertex -3.23607 2.35114 95
    endloop
  endfacet
  facet normal -0.866026 0.499999 0
    outer loop
      vertex -3.65418 1.62695 80
      vertex -3.23607 2.35114 95
      vertex -3.23607 2.35114 80
    endloop
  endfacet
  facet normal -0.866026 0.499999 0
    outer loop
      vertex -3.23607 2.35114 95
      vertex -3.65418 1.62695 80
      vertex -3.65418 1.62695 95
    endloop
  endfacet
  facet normal -0.406743 0.913543 0
    outer loop
      vertex -1.23607 3.80423 80
      vertex -2 3.4641 95
      vertex -1.23607 3.80423 95
    endloop
  endfacet
  facet normal -0.406743 0.913543 0
    outer loop
      vertex -2 3.4641 95
      vertex -1.23607 3.80423 80
      vertex -2 3.4641 80
    endloop
  endfacet
  facet normal 0.866026 0.499999 0
    outer loop
      vertex 3.65418 1.62695 95
      vertex 3.23607 2.35114 80
      vertex 3.23607 2.35114 95
    endloop
  endfacet
  facet normal 0.866026 0.499999 0
    outer loop
      vertex 3.23607 2.35114 80
      vertex 3.65418 1.62695 95
      vertex 3.65418 1.62695 80
    endloop
  endfacet
  facet normal 0.951056 0.309017 0
    outer loop
      vertex 3.91259 0.831646 95
      vertex 3.65418 1.62695 80
      vertex 3.65418 1.62695 95
    endloop
  endfacet
  facet normal 0.951056 0.309017 0
    outer loop
      vertex 3.65418 1.62695 80
      vertex 3.91259 0.831646 95
      vertex 3.91259 0.831646 80
    endloop
  endfacet
  facet normal 0.406743 0.913543 -0
    outer loop
      vertex 2 3.4641 80
      vertex 1.23607 3.80423 95
      vertex 2 3.4641 95
    endloop
  endfacet
  facet normal 0.406743 0.913543 0
    outer loop
      vertex 1.23607 3.80423 95
      vertex 2 3.4641 80
      vertex 1.23607 3.80423 80
    endloop
  endfacet
  facet normal 0.207909 0.978148 -0
    outer loop
      vertex 1.23607 3.80423 80
      vertex 0.418114 3.97809 95
      vertex 1.23607 3.80423 95
    endloop
  endfacet
  facet normal 0.207909 0.978148 0
    outer loop
      vertex 0.418114 3.97809 95
      vertex 1.23607 3.80423 80
      vertex 0.418114 3.97809 80
    endloop
  endfacet
  facet normal 0.587785 0.809017 -0
    outer loop
      vertex 2.67652 2.97258 80
      vertex 2 3.4641 95
      vertex 2.67652 2.97258 95
    endloop
  endfacet
  facet normal 0.587785 0.809017 0
    outer loop
      vertex 2 3.4641 95
      vertex 2.67652 2.97258 80
      vertex 2 3.4641 80
    endloop
  endfacet
  facet normal -0.951056 0.309017 0
    outer loop
      vertex -3.91259 0.831646 80
      vertex -3.65418 1.62695 95
      vertex -3.65418 1.62695 80
    endloop
  endfacet
  facet normal -0.951056 0.309017 0
    outer loop
      vertex -3.65418 1.62695 95
      vertex -3.91259 0.831646 80
      vertex -3.91259 0.831646 95
    endloop
  endfacet
  facet normal 0 0 1
    outer loop
      vertex 3.91259 0.831646 95
      vertex 3.91259 -0.831646 95
      vertex 4 0 95
    endloop
  endfacet
  facet normal 0 0 1
    outer loop
      vertex 3.65418 1.62695 95
      vertex 3.91259 -0.831646 95
      vertex 3.91259 0.831646 95
    endloop
  endfacet
  facet normal 0 0 1
    outer loop
      vertex 3.65418 1.62695 95
      vertex 3.65418 -1.62695 95
      vertex 3.91259 -0.831646 95
    endloop
  endfacet
  facet normal 0 0 1
    outer loop
      vertex 3.23607 2.35114 95
      vertex 3.65418 -1.62695 95
      vertex 3.65418 1.62695 95
    endloop
  endfacet
  facet normal 0 0 1
    outer loop
      vertex 3.23607 2.35114 95
      vertex 3.23607 -2.35114 95
      vertex 3.65418 -1.62695 95
    endloop
  endfacet
  facet normal 0 0 1
    outer loop
      vertex 2.67652 2.97258 95
      vertex 3.23607 -2.35114 95
      vertex 3.23607 2.35114 95
    endloop
  endfacet
  facet normal 0 0 1
    outer loop
      vertex 2.67652 2.97258 95
      vertex 2.67652 -2.97258 95
      vertex 3.23607 -2.35114 95
    endloop
  endfacet
  facet normal 0 0 1
    outer loop
      vertex 2 3.4641 95
      vertex 2.67652 -2.97258 95
      vertex 2.67652 2.97258 95
    endloop
  endfacet
  facet normal 0 0 1
    outer loop
      vertex 2 3.4641 95
      vertex 2 -3.4641 95
      vertex 2.67652 -2.97258 95
    endloop
  endfacet
  facet normal 0 0 1
    outer loop
      vertex 1.23607 3.80423 95
      vertex 2 -3.4641 95
      vertex 2 3.4641 95
    endloop
  endfacet
  facet normal 0 0 1
    outer loop
      vertex 1.23607 3.80423 95
      vertex 1.23607 -3.80423 95
      vertex 2 -3.4641 95
    endloop
  endfacet
  facet normal 0 0 1
    outer loop
      vertex 0.418114 3.97809 95
      vertex 1.23607 -3.80423 95
      vertex 1.23607 3.80423 95
    endloop
  endfacet
  facet normal 0 0 1
    outer loop
      vertex 0.418114 3.97809 95
      vertex 0.418114 -3.97809 95
      vertex 1.23607 -3.80423 95
    endloop
  endfacet
  facet normal -0 0 1
    outer loop
      vertex -0.418114 3.97809 95
      vertex 0.418114 -3.97809 95
      vertex 0.418114 3.97809 95
    endloop
  endfacet
  facet normal 0 0 1
    outer loop
      vertex -0.418114 3.97809 95
      vertex -0.418114 -3.97809 95
      vertex 0.418114 -3.97809 95
    endloop
  endfacet
  facet normal -0 0 1
    outer loop
      vertex -1.23607 3.80423 95
      vertex -0.418114 -3.97809 95
      vertex -0.418114 3.97809 95
    endloop
  endfacet
  facet normal 0 0 1
    outer loop
      vertex -1.23607 3.80423 95
      vertex -1.23607 -3.80423 95
      vertex -0.418114 -3.97809 95
    endloop
  endfacet
  facet normal -0 0 1
    outer loop
      vertex -2 3.4641 95
      vertex -1.23607 -3.80423 95
      vertex -1.23607 3.80423 95
    endloop
  endfacet
  facet normal 0 0 1
    outer loop
      vertex -2 3.4641 95
      vertex -2 -3.4641 95
      vertex -1.23607 -3.80423 95
    endloop
  endfacet
  facet normal -0 0 1
    outer loop
      vertex -2.67652 2.97258 95
      vertex -2 -3.4641 95
      vertex -2 3.4641 95
    endloop
  endfacet
  facet normal 0 0 1
    outer loop
      vertex -2.67652 2.97258 95
      vertex -2.67652 -2.97258 95
      vertex -2 -3.4641 95
    endloop
  endfacet
  facet normal -0 0 1
    outer loop
      vertex -3.23607 2.35114 95
      vertex -2.67652 -2.97258 95
      vertex -2.67652 2.97258 95
    endloop
  endfacet
  facet normal 0 0 1
    outer loop
      vertex -3.23607 2.35114 95
      vertex -3.23607 -2.35114 95
      vertex -2.67652 -2.97258 95
    endloop
  endfacet
  facet normal -0 0 1
    outer loop
      vertex -3.65418 1.62695 95
      vertex -3.23607 -2.35114 95
      vertex -3.23607 2.35114 95
    endloop
  endfacet
  facet normal 0 0 1
    outer loop
      vertex -3.65418 1.62695 95
      vertex -3.65418 -1.62695 95
      vertex -3.23607 -2.35114 95
    endloop
  endfacet
  facet normal -0 0 1
    outer loop
      vertex -3.91259 0.831646 95
      vertex -3.65418 -1.62695 95
      vertex -3.65418 1.62695 95
    endloop
  endfacet
  facet normal 0 0 1
    outer loop
      vertex -3.91259 0.831646 95
      vertex -3.91259 -0.831646 95
      vertex -3.65418 -1.62695 95
    endloop
  endfacet
  facet normal 0 -0 1
    outer loop
      vertex -3.91259 -0.831646 95
      vertex -3.91259 0.831646 95
      vertex -4 0 95
    endloop
  endfacet
  facet normal -0.587785 0.809017 0
    outer loop
      vertex -2 3.4641 80
      vertex -2.67652 2.97258 95
      vertex -2 3.4641 95
    endloop
  endfacet
  facet normal -0.587785 0.809017 0
    outer loop
      vertex -2.67652 2.97258 95
      vertex -2 3.4641 80
      vertex -2.67652 2.97258 80
    endloop
  endfacet
  facet normal -0.207909 0.978148 0
    outer loop
      vertex -0.418114 3.97809 80
      vertex -1.23607 3.80423 95
      vertex -0.418114 3.97809 95
    endloop
  endfacet
  facet normal -0.207909 0.978148 0
    outer loop
      vertex -1.23607 3.80423 95
      vertex -0.418114 3.97809 80
      vertex -1.23607 3.80423 80
    endloop
  endfacet
  facet normal 0.994522 -0.104529 0
    outer loop
      vertex 3.91259 -0.831646 95
      vertex 4 0 80
      vertex 4 0 95
    endloop
  endfacet
  facet normal 0.994522 -0.104529 0
    outer loop
      vertex 4 0 80
      vertex 3.91259 -0.831646 95
      vertex 3.91259 -0.831646 80
    endloop
  endfacet
  facet normal 0.207909 -0.978148 0
    outer loop
      vertex 0.418114 -3.97809 80
      vertex 1.23607 -3.80423 95
      vertex 0.418114 -3.97809 95
    endloop
  endfacet
  facet normal 0.207909 -0.978148 0
    outer loop
      vertex 1.23607 -3.80423 95
      vertex 0.418114 -3.97809 80
      vertex 1.23607 -3.80423 80
    endloop
  endfacet
  facet normal 0.743143 -0.669133 0
    outer loop
      vertex 2.67652 -2.97258 95
      vertex 3.23607 -2.35114 80
      vertex 3.23607 -2.35114 95
    endloop
  endfacet
  facet normal 0.743143 -0.669133 0
    outer loop
      vertex 3.23607 -2.35114 80
      vertex 2.67652 -2.97258 95
      vertex 2.67652 -2.97258 80
    endloop
  endfacet
  facet normal 0.951056 -0.309017 0
    outer loop
      vertex 3.65418 -1.62695 95
      vertex 3.91259 -0.831646 80
      vertex 3.91259 -0.831646 95
    endloop
  endfacet
  facet normal 0.951056 -0.309017 0
    outer loop
      vertex 3.91259 -0.831646 80
      vertex 3.65418 -1.62695 95
      vertex 3.65418 -1.62695 80
    endloop
  endfacet
  facet normal 0.866026 -0.499999 0
    outer loop
      vertex 3.23607 -2.35114 95
      vertex 3.65418 -1.62695 80
      vertex 3.65418 -1.62695 95
    endloop
  endfacet
  facet normal 0.866026 -0.499999 0
    outer loop
      vertex 3.65418 -1.62695 80
      vertex 3.23607 -2.35114 95
      vertex 3.23607 -2.35114 80
    endloop
  endfacet
  facet normal -0.866026 -0.499999 0
    outer loop
      vertex -3.23607 -2.35114 80
      vertex -3.65418 -1.62695 95
      vertex -3.65418 -1.62695 80
    endloop
  endfacet
  facet normal -0.866026 -0.499999 0
    outer loop
      vertex -3.65418 -1.62695 95
      vertex -3.23607 -2.35114 80
      vertex -3.23607 -2.35114 95
    endloop
  endfacet
  facet normal 0.587785 -0.809017 0
    outer loop
      vertex 2 -3.4641 80
      vertex 2.67652 -2.97258 95
      vertex 2 -3.4641 95
    endloop
  endfacet
  facet normal 0.587785 -0.809017 0
    outer loop
      vertex 2.67652 -2.97258 95
      vertex 2 -3.4641 80
      vertex 2.67652 -2.97258 80
    endloop
  endfacet
  facet normal 0.406743 -0.913543 0
    outer loop
      vertex 1.23607 -3.80423 80
      vertex 2 -3.4641 95
      vertex 1.23607 -3.80423 95
    endloop
  endfacet
  facet normal 0.406743 -0.913543 0
    outer loop
      vertex 2 -3.4641 95
      vertex 1.23607 -3.80423 80
      vertex 2 -3.4641 80
    endloop
  endfacet
  facet normal -0.207909 -0.978148 0
    outer loop
      vertex -1.23607 -3.80423 80
      vertex -0.418114 -3.97809 95
      vertex -1.23607 -3.80423 95
    endloop
  endfacet
  facet normal -0.207909 -0.978148 -0
    outer loop
      vertex -0.418114 -3.97809 95
      vertex -1.23607 -3.80423 80
      vertex -0.418114 -3.97809 80
    endloop
  endfacet
  facet normal -0.406743 -0.913543 0
    outer loop
      vertex -2 -3.4641 80
      vertex -1.23607 -3.80423 95
      vertex -2 -3.4641 95
    endloop
  endfacet
  facet normal -0.406743 -0.913543 -0
    outer loop
      vertex -1.23607 -3.80423 95
      vertex -2 -3.4641 80
      vertex -1.23607 -3.80423 80
    endloop
  endfacet
  facet normal -0.743143 -0.669133 0
    outer loop
      vertex -2.67652 -2.97258 80
      vertex -3.23607 -2.35114 95
      vertex -3.23607 -2.35114 80
    endloop
  endfacet
  facet normal -0.743143 -0.669133 0
    outer loop
      vertex -3.23607 -2.35114 95
      vertex -2.67652 -2.97258 80
      vertex -2.67652 -2.97258 95
    endloop
  endfacet
  facet normal -0.951056 -0.309017 0
    outer loop
      vertex -3.65418 -1.62695 80
      vertex -3.91259 -0.831646 95
      vertex -3.91259 -0.831646 80
    endloop
  endfacet
  facet normal -0.951056 -0.309017 0
    outer loop
      vertex -3.91259 -0.831646 95
      vertex -3.65418 -1.62695 80
      vertex -3.65418 -1.62695 95
    endloop
  endfacet
  facet normal -0.994522 -0.104529 0
    outer loop
      vertex -3.91259 -0.831646 80
      vertex -4 0 95
      vertex -4 0 80
    endloop
  endfacet
  facet normal -0.994522 -0.104529 0
    outer loop
      vertex -4 0 95
      vertex -3.91259 -0.831646 80
      vertex -3.91259 -0.831646 95
    endloop
  endfacet
  facet normal -0.587785 -0.809017 0
    outer loop
      vertex -2.67652 -2.97258 80
      vertex -2 -3.4641 95
      vertex -2.67652 -2.97258 95
    endloop
  endfacet
  facet normal -0.587785 -0.809017 -0
    outer loop
      vertex -2 -3.4641 95
      vertex -2.67652 -2.97258 80
      vertex -2 -3.4641 80
    endloop
  endfacet
endsolid OpenSCAD_Model
