solid OpenSCAD_Model
  facet normal 1 -0 0
    outer loop
      vertex -2 -2.15651 10
      vertex -2 2.15651 0
      vertex -2 2.15651 10
    endloop
  endfacet
  facet normal 1 0 0
    outer loop
      vertex -2 2.15651 0
      vertex -2 -2.15651 10
      vertex -2 -2.15651 0
    endloop
  endfacet
  facet normal -1 0 0
    outer loop
      vertex 2 -2.15651 0
      vertex 2 2.15651 10
      vertex 2 2.15651 0
    endloop
  endfacet
  facet normal -1 -0 0
    outer loop
      vertex 2 2.15651 10
      vertex 2 -2.15651 0
      vertex 2 -2.15651 10
    endloop
  endfacet
  facet normal -0.0980114 -0.995185 0
    outer loop
      vertex 0 2.95 0
      vertex 0.575516 2.89332 10
      vertex 0 2.95 10
    endloop
  endfacet
  facet normal -0.0980114 -0.995185 -0
    outer loop
      vertex 0.575516 2.89332 10
      vertex 0 2.95 0
      vertex 0.575516 2.89332 0
    endloop
  endfacet
  facet normal -0.634403 -0.773003 0
    outer loop
      vertex 1.63893 2.45284 0
      vertex 2 2.15651 10
      vertex 1.63893 2.45284 10
    endloop
  endfacet
  facet normal -0.634403 -0.773003 -0
    outer loop
      vertex 2 2.15651 10
      vertex 1.63893 2.45284 0
      vertex 2 2.15651 0
    endloop
  endfacet
  facet normal 0.634403 -0.773003 0
    outer loop
      vertex -2 2.15651 0
      vertex -1.63893 2.45284 10
      vertex -2 2.15651 10
    endloop
  endfacet
  facet normal 0.634403 -0.773003 0
    outer loop
      vertex -1.63893 2.45284 10
      vertex -2 2.15651 0
      vertex -1.63893 2.45284 0
    endloop
  endfacet
  facet normal 0.290295 -0.956937 0
    outer loop
      vertex -1.12892 2.72544 0
      vertex -0.575516 2.89332 10
      vertex -1.12892 2.72544 10
    endloop
  endfacet
  facet normal 0.290295 -0.956937 0
    outer loop
      vertex -0.575516 2.89332 10
      vertex -1.12892 2.72544 0
      vertex -0.575516 2.89332 0
    endloop
  endfacet
  facet normal -0.290295 -0.956937 0
    outer loop
      vertex 0.575516 2.89332 0
      vertex 1.12892 2.72544 10
      vertex 0.575516 2.89332 10
    endloop
  endfacet
  facet normal -0.290295 -0.956937 -0
    outer loop
      vertex 1.12892 2.72544 10
      vertex 0.575516 2.89332 0
      vertex 1.12892 2.72544 0
    endloop
  endfacet
  facet normal -0.471389 -0.881926 0
    outer loop
      vertex 1.12892 2.72544 0
      vertex 1.63893 2.45284 10
      vertex 1.12892 2.72544 10
    endloop
  endfacet
  facet normal -0.471389 -0.881926 -0
    outer loop
      vertex 1.63893 2.45284 10
      vertex 1.12892 2.72544 0
      vertex 1.63893 2.45284 0
    endloop
  endfacet
  facet normal 0 0 -1
    outer loop
      vertex 1.12892 -2.72544 10
      vertex 2 -2.15651 10
      vertex 1.63893 -2.45284 10
    endloop
  endfacet
  facet normal -0 0 -1
    outer loop
      vertex 2 -2.15651 10
      vertex 1.12892 -2.72544 10
      vertex 2 2.15651 10
    endloop
  endfacet
  facet normal 0 0 -1
    outer loop
      vertex 1.12892 2.72544 10
      vertex 2 2.15651 10
      vertex 1.12892 -2.72544 10
    endloop
  endfacet
  facet normal 0 0 -1
    outer loop
      vertex 2 2.15651 10
      vertex 1.12892 2.72544 10
      vertex 1.63893 2.45284 10
    endloop
  endfacet
  facet normal 0 0 -1
    outer loop
      vertex 0.575516 -2.89332 10
      vertex 1.12892 2.72544 10
      vertex 1.12892 -2.72544 10
    endloop
  endfacet
  facet normal 0 0 -1
    outer loop
      vertex 0.575516 -2.89332 10
      vertex 0.575516 2.89332 10
      vertex 1.12892 2.72544 10
    endloop
  endfacet
  facet normal 0 0 -1
    outer loop
      vertex 0 -2.95 10
      vertex 0.575516 2.89332 10
      vertex 0.575516 -2.89332 10
    endloop
  endfacet
  facet normal 0 0 -1
    outer loop
      vertex 0 -2.95 10
      vertex 0 2.95 10
      vertex 0.575516 2.89332 10
    endloop
  endfacet
  facet normal 0 0 -1
    outer loop
      vertex -0.575516 -2.89332 10
      vertex 0 2.95 10
      vertex 0 -2.95 10
    endloop
  endfacet
  facet normal 0 0 -1
    outer loop
      vertex -0.575516 -2.89332 10
      vertex -0.575516 2.89332 10
      vertex 0 2.95 10
    endloop
  endfacet
  facet normal 0 0 -1
    outer loop
      vertex -1.12892 -2.72544 10
      vertex -0.575516 2.89332 10
      vertex -0.575516 -2.89332 10
    endloop
  endfacet
  facet normal 0 0 -1
    outer loop
      vertex -1.12892 -2.72544 10
      vertex -1.12892 2.72544 10
      vertex -0.575516 2.89332 10
    endloop
  endfacet
  facet normal 0 0 -1
    outer loop
      vertex -2 -2.15651 10
      vertex -1.12892 -2.72544 10
      vertex -1.63893 -2.45284 10
    endloop
  endfacet
  facet normal 0 0 -1
    outer loop
      vertex -1.12892 -2.72544 10
      vertex -2 -2.15651 10
      vertex -1.12892 2.72544 10
    endloop
  endfacet
  facet normal 0 0 -1
    outer loop
      vertex -2 2.15651 10
      vertex -1.12892 2.72544 10
      vertex -2 -2.15651 10
    endloop
  endfacet
  facet normal 0 0 -1
    outer loop
      vertex -1.12892 2.72544 10
      vertex -2 2.15651 10
      vertex -1.63893 2.45284 10
    endloop
  endfacet
  facet normal 0.471389 -0.881926 0
    outer loop
      vertex -1.63893 2.45284 0
      vertex -1.12892 2.72544 10
      vertex -1.63893 2.45284 10
    endloop
  endfacet
  facet normal 0.471389 -0.881926 0
    outer loop
      vertex -1.12892 2.72544 10
      vertex -1.63893 2.45284 0
      vertex -1.12892 2.72544 0
    endloop
  endfacet
  facet normal 0.0980114 -0.995185 0
    outer loop
      vertex -0.575516 2.89332 0
      vertex 0 2.95 10
      vertex -0.575516 2.89332 10
    endloop
  endfacet
  facet normal 0.0980114 -0.995185 0
    outer loop
      vertex 0 2.95 10
      vertex -0.575516 2.89332 0
      vertex 0 2.95 0
    endloop
  endfacet
  facet normal -0.290295 0.956937 0
    outer loop
      vertex 1.12892 -2.72544 0
      vertex 0.575516 -2.89332 10
      vertex 1.12892 -2.72544 10
    endloop
  endfacet
  facet normal -0.290295 0.956937 0
    outer loop
      vertex 0.575516 -2.89332 10
      vertex 1.12892 -2.72544 0
      vertex 0.575516 -2.89332 0
    endloop
  endfacet
  facet normal -0.0980114 0.995185 0
    outer loop
      vertex 0.575516 -2.89332 0
      vertex 0 -2.95 10
      vertex 0.575516 -2.89332 10
    endloop
  endfacet
  facet normal -0.0980114 0.995185 0
    outer loop
      vertex 0 -2.95 10
      vertex 0.575516 -2.89332 0
      vertex 0 -2.95 0
    endloop
  endfacet
  facet normal -0.634403 0.773003 0
    outer loop
      vertex 2 -2.15651 0
      vertex 1.63893 -2.45284 10
      vertex 2 -2.15651 10
    endloop
  endfacet
  facet normal -0.634403 0.773003 0
    outer loop
      vertex 1.63893 -2.45284 10
      vertex 2 -2.15651 0
      vertex 1.63893 -2.45284 0
    endloop
  endfacet
  facet normal 0.634403 0.773003 -0
    outer loop
      vertex -1.63893 -2.45284 0
      vertex -2 -2.15651 10
      vertex -1.63893 -2.45284 10
    endloop
  endfacet
  facet normal 0.634403 0.773003 0
    outer loop
      vertex -2 -2.15651 10
      vertex -1.63893 -2.45284 0
      vertex -2 -2.15651 0
    endloop
  endfacet
  facet normal 0.290295 0.956937 -0
    outer loop
      vertex -0.575516 -2.89332 0
      vertex -1.12892 -2.72544 10
      vertex -0.575516 -2.89332 10
    endloop
  endfacet
  facet normal 0.290295 0.956937 0
    outer loop
      vertex -1.12892 -2.72544 10
      vertex -0.575516 -2.89332 0
      vertex -1.12892 -2.72544 0
    endloop
  endfacet
  facet normal 0.471389 0.881926 -0
    outer loop
      vertex -1.12892 -2.72544 0
      vertex -1.63893 -2.45284 10
      vertex -1.12892 -2.72544 10
    endloop
  endfacet
  facet normal 0.471389 0.881926 0
    outer loop
      vertex -1.63893 -2.45284 10
      vertex -1.12892 -2.72544 0
      vertex -1.63893 -2.45284 0
    endloop
  endfacet
  facet normal 0.0980114 0.995185 -0
    outer loop
      vertex 0 -2.95 0
      vertex -0.575516 -2.89332 10
      vertex 0 -2.95 10
    endloop
  endfacet
  facet normal 0.0980114 0.995185 0
    outer loop
      vertex -0.575516 -2.89332 10
      vertex 0 -2.95 0
      vertex -0.575516 -2.89332 0
    endloop
  endfacet
  facet normal -0.471389 0.881926 0
    outer loop
      vertex 1.63893 -2.45284 0
      vertex 1.12892 -2.72544 10
      vertex 1.63893 -2.45284 10
    endloop
  endfacet
  facet normal -0.471389 0.881926 0
    outer loop
      vertex 1.12892 -2.72544 10
      vertex 1.63893 -2.45284 0
      vertex 1.12892 -2.72544 0
    endloop
  endfacet
  facet normal -0.707107 0.707107 0
    outer loop
      vertex -6 0 0.5
      vertex 0 6 80
      vertex 0 6 0.5
    endloop
  endfacet
  facet normal -0.707107 0.707107 0
    outer loop
      vertex 0 6 80
      vertex -6 0 0.5
      vertex -6 0 80
    endloop
  endfacet
  facet normal 0.707107 0.707107 0
    outer loop
      vertex 6 0 80
      vertex 0 6 0.5
      vertex 0 6 80
    endloop
  endfacet
  facet normal 0.707107 0.707107 0
    outer loop
      vertex 0 6 0.5
      vertex 6 0 80
      vertex 6 0 0.5
    endloop
  endfacet
  facet normal 0 0 1
    outer loop
      vertex 6 0 80
      vertex 3.91259 0.831646 80
      vertex 4 0 80
    endloop
  endfacet
  facet normal 0 0 1
    outer loop
      vertex 6 0 80
      vertex 3.65418 1.62695 80
      vertex 3.91259 0.831646 80
    endloop
  endfacet
  facet normal 0 0 1
    outer loop
      vertex 6 0 80
      vertex 3.23607 2.35114 80
      vertex 3.65418 1.62695 80
    endloop
  endfacet
  facet normal 0 0 1
    outer loop
      vertex 6 0 80
      vertex 2.67652 2.97258 80
      vertex 3.23607 2.35114 80
    endloop
  endfacet
  facet normal 0 0 1
    outer loop
      vertex 0 6 80
      vertex 2.67652 2.97258 80
      vertex 6 0 80
    endloop
  endfacet
  facet normal 0 0 1
    outer loop
      vertex 0 6 80
      vertex 2 3.4641 80
      vertex 2.67652 2.97258 80
    endloop
  endfacet
  facet normal 0 0 1
    outer loop
      vertex 0 6 80
      vertex 1.23607 3.80423 80
      vertex 2 3.4641 80
    endloop
  endfacet
  facet normal 0 0 1
    outer loop
      vertex 0 6 80
      vertex 0.418114 3.97809 80
      vertex 1.23607 3.80423 80
    endloop
  endfacet
  facet normal 0 0 1
    outer loop
      vertex 0 6 80
      vertex -0.418114 3.97809 80
      vertex 0.418114 3.97809 80
    endloop
  endfacet
  facet normal 0 0 1
    outer loop
      vertex 0 6 80
      vertex -1.23607 3.80423 80
      vertex -0.418114 3.97809 80
    endloop
  endfacet
  facet normal 0 0 1
    outer loop
      vertex 0 6 80
      vertex -2 3.4641 80
      vertex -1.23607 3.80423 80
    endloop
  endfacet
  facet normal 0 0 1
    outer loop
      vertex 0 6 80
      vertex -2.67652 2.97258 80
      vertex -2 3.4641 80
    endloop
  endfacet
  facet normal 0 0 1
    outer loop
      vertex -6 0 80
      vertex -2.67652 2.97258 80
      vertex 0 6 80
    endloop
  endfacet
  facet normal 0 0 1
    outer loop
      vertex -3.91259 0.831646 80
      vertex -6 0 80
      vertex -4 0 80
    endloop
  endfacet
  facet normal 0 0 1
    outer loop
      vertex -3.65418 1.62695 80
      vertex -6 0 80
      vertex -3.91259 0.831646 80
    endloop
  endfacet
  facet normal 0 0 1
    outer loop
      vertex -3.23607 2.35114 80
      vertex -6 0 80
      vertex -3.65418 1.62695 80
    endloop
  endfacet
  facet normal 0 0 1
    outer loop
      vertex -2.67652 2.97258 80
      vertex -6 0 80
      vertex -3.23607 2.35114 80
    endloop
  endfacet
  facet normal 0 0 1
    outer loop
      vertex 3.91259 -0.831646 80
      vertex 6 0 80
      vertex 4 0 80
    endloop
  endfacet
  facet normal 0 0 1
    outer loop
      vertex 3.65418 -1.62695 80
      vertex 6 0 80
      vertex 3.91259 -0.831646 80
    endloop
  endfacet
  facet normal 0 0 1
    outer loop
      vertex 3.23607 -2.35114 80
      vertex 6 0 80
      vertex 3.65418 -1.62695 80
    endloop
  endfacet
  facet normal 0 0 1
    outer loop
      vertex 2.67652 -2.97258 80
      vertex 6 0 80
      vertex 3.23607 -2.35114 80
    endloop
  endfacet
  facet normal -0 0 1
    outer loop
      vertex 2.67652 -2.97258 80
      vertex 0 -6 80
      vertex 6 0 80
    endloop
  endfacet
  facet normal -0 0 1
    outer loop
      vertex 2 -3.4641 80
      vertex 0 -6 80
      vertex 2.67652 -2.97258 80
    endloop
  endfacet
  facet normal -0 0 1
    outer loop
      vertex 1.23607 -3.80423 80
      vertex 0 -6 80
      vertex 2 -3.4641 80
    endloop
  endfacet
  facet normal -0 0 1
    outer loop
      vertex 0.418114 -3.97809 80
      vertex 0 -6 80
      vertex 1.23607 -3.80423 80
    endloop
  endfacet
  facet normal -0 0 1
    outer loop
      vertex -0.418114 -3.97809 80
      vertex 0 -6 80
      vertex 0.418114 -3.97809 80
    endloop
  endfacet
  facet normal 0 0 1
    outer loop
      vertex -1.23607 -3.80423 80
      vertex 0 -6 80
      vertex -0.418114 -3.97809 80
    endloop
  endfacet
  facet normal 0 0 1
    outer loop
      vertex -2 -3.4641 80
      vertex 0 -6 80
      vertex -1.23607 -3.80423 80
    endloop
  endfacet
  facet normal 0 0 1
    outer loop
      vertex -2.67652 -2.97258 80
      vertex 0 -6 80
      vertex -2 -3.4641 80
    endloop
  endfacet
  facet normal 0 0 1
    outer loop
      vertex -6 0 80
      vertex -2.67652 -2.97258 80
      vertex -3.23607 -2.35114 80
    endloop
  endfacet
  facet normal 0 0 1
    outer loop
      vertex -2.67652 -2.97258 80
      vertex -6 0 80
      vertex 0 -6 80
    endloop
  endfacet
  facet normal 0 0 1
    outer loop
      vertex -3.65418 -1.62695 80
      vertex -6 0 80
      vertex -3.23607 -2.35114 80
    endloop
  endfacet
  facet normal 0 0 1
    outer loop
      vertex -3.91259 -0.831646 80
      vertex -6 0 80
      vertex -3.65418 -1.62695 80
    endloop
  endfacet
  facet normal -0 0 1
    outer loop
      vertex -6 0 80
      vertex -3.91259 -0.831646 80
      vertex -4 0 80
    endloop
  endfacet
  facet normal -0.707107 -0.707107 0
    outer loop
      vertex 0 -6 0.5
      vertex -6 0 80
      vertex -6 0 0.5
    endloop
  endfacet
  facet normal -0.707107 -0.707107 0
    outer loop
      vertex -6 0 80
      vertex 0 -6 0.5
      vertex 0 -6 80
    endloop
  endfacet
  facet normal 0 0 -1
    outer loop
      vertex 2.5 -3.5 0
      vertex 2 -2.15651 0
      vertex 2.5 3.5 0
    endloop
  endfacet
  facet normal 0 0 -1
    outer loop
      vertex 2.5 -3.5 0
      vertex 1.63893 -2.45284 0
      vertex 2 -2.15651 0
    endloop
  endfacet
  facet normal 0 0 -1
    outer loop
      vertex 2.5 -3.5 0
      vertex 1.12892 -2.72544 0
      vertex 1.63893 -2.45284 0
    endloop
  endfacet
  facet normal 0 0 -1
    outer loop
      vertex 2.5 -3.5 0
      vertex 0.575516 -2.89332 0
      vertex 1.12892 -2.72544 0
    endloop
  endfacet
  facet normal 0 0 -1
    outer loop
      vertex 2.5 -3.5 0
      vertex 0 -2.95 0
      vertex 0.575516 -2.89332 0
    endloop
  endfacet
  facet normal 0 0 -1
    outer loop
      vertex -2.5 -3.5 0
      vertex 0 -2.95 0
      vertex 2.5 -3.5 0
    endloop
  endfacet
  facet normal -0 0 -1
    outer loop
      vertex -2 -2.15651 0
      vertex -2.5 -3.5 0
      vertex -2 2.15651 0
    endloop
  endfacet
  facet normal -0 0 -1
    outer loop
      vertex -1.63893 -2.45284 0
      vertex -2.5 -3.5 0
      vertex -2 -2.15651 0
    endloop
  endfacet
  facet normal -0 0 -1
    outer loop
      vertex -1.12892 -2.72544 0
      vertex -2.5 -3.5 0
      vertex -1.63893 -2.45284 0
    endloop
  endfacet
  facet normal -0 0 -1
    outer loop
      vertex -0.575516 -2.89332 0
      vertex -2.5 -3.5 0
      vertex -1.12892 -2.72544 0
    endloop
  endfacet
  facet normal -0 0 -1
    outer loop
      vertex 0 -2.95 0
      vertex -2.5 -3.5 0
      vertex -0.575516 -2.89332 0
    endloop
  endfacet
  facet normal 0 0 -1
    outer loop
      vertex 2 2.15651 0
      vertex 2.5 3.5 0
      vertex 2 -2.15651 0
    endloop
  endfacet
  facet normal 0 0 -1
    outer loop
      vertex 1.63893 2.45284 0
      vertex 2.5 3.5 0
      vertex 2 2.15651 0
    endloop
  endfacet
  facet normal 0 0 -1
    outer loop
      vertex 1.12892 2.72544 0
      vertex 2.5 3.5 0
      vertex 1.63893 2.45284 0
    endloop
  endfacet
  facet normal 0 0 -1
    outer loop
      vertex 0.575516 2.89332 0
      vertex 2.5 3.5 0
      vertex 1.12892 2.72544 0
    endloop
  endfacet
  facet normal 0 0 -1
    outer loop
      vertex 0 2.95 0
      vertex 2.5 3.5 0
      vertex 0.575516 2.89332 0
    endloop
  endfacet
  facet normal 0 0 -1
    outer loop
      vertex -2.5 3.5 0
      vertex 0 2.95 0
      vertex -0.575516 2.89332 0
    endloop
  endfacet
  facet normal 0 0 -1
    outer loop
      vertex 0 2.95 0
      vertex -2.5 3.5 0
      vertex 2.5 3.5 0
    endloop
  endfacet
  facet normal 0 0 -1
    outer loop
      vertex -1.12892 2.72544 0
      vertex -2.5 3.5 0
      vertex -0.575516 2.89332 0
    endloop
  endfacet
  facet normal 0 0 -1
    outer loop
      vertex -1.63893 2.45284 0
      vertex -2.5 3.5 0
      vertex -1.12892 2.72544 0
    endloop
  endfacet
  facet normal 0 0 -1
    outer loop
      vertex -2 2.15651 0
      vertex -2.5 3.5 0
      vertex -1.63893 2.45284 0
    endloop
  endfacet
  facet normal 0 0 -1
    outer loop
      vertex -2.5 3.5 0
      vertex -2 2.15651 0
      vertex -2.5 -3.5 0
    endloop
  endfacet
  facet normal 0.707107 -0.707107 0
    outer loop
      vertex 0 -6 80
      vertex 6 0 0.5
      vertex 6 0 80
    endloop
  endfacet
  facet normal 0.707107 -0.707107 0
    outer loop
      vertex 6 0 0.5
      vertex 0 -6 80
      vertex 0 -6 0.5
    endloop
  endfacet
  facet normal 0.866026 0.499999 0
    outer loop
      vertex 3.65418 1.62695 99.9
      vertex 3.23607 2.35114 80
      vertex 3.23607 2.35114 99.9
    endloop
  endfacet
  facet normal 0.866026 0.499999 0
    outer loop
      vertex 3.23607 2.35114 80
      vertex 3.65418 1.62695 99.9
      vertex 3.65418 1.62695 80
    endloop
  endfacet
  facet normal -0.951056 0.309017 0
    outer loop
      vertex -3.91259 0.831646 80
      vertex -3.65418 1.62695 99.9
      vertex -3.65418 1.62695 80
    endloop
  endfacet
  facet normal -0.951056 0.309017 0
    outer loop
      vertex -3.65418 1.62695 99.9
      vertex -3.91259 0.831646 80
      vertex -3.91259 0.831646 99.9
    endloop
  endfacet
  facet normal 0.743143 0.669133 0
    outer loop
      vertex 3.23607 2.35114 99.9
      vertex 2.67652 2.97258 80
      vertex 2.67652 2.97258 99.9
    endloop
  endfacet
  facet normal 0.743143 0.669133 0
    outer loop
      vertex 2.67652 2.97258 80
      vertex 3.23607 2.35114 99.9
      vertex 3.23607 2.35114 80
    endloop
  endfacet
  facet normal 0.406743 0.913543 -0
    outer loop
      vertex 2 3.4641 80
      vertex 1.23607 3.80423 99.9
      vertex 2 3.4641 99.9
    endloop
  endfacet
  facet normal 0.406743 0.913543 0
    outer loop
      vertex 1.23607 3.80423 99.9
      vertex 2 3.4641 80
      vertex 1.23607 3.80423 80
    endloop
  endfacet
  facet normal -0.406743 0.913543 0
    outer loop
      vertex -1.23607 3.80423 80
      vertex -2 3.4641 99.9
      vertex -1.23607 3.80423 99.9
    endloop
  endfacet
  facet normal -0.406743 0.913543 0
    outer loop
      vertex -2 3.4641 99.9
      vertex -1.23607 3.80423 80
      vertex -2 3.4641 80
    endloop
  endfacet
  facet normal 0.994522 -0.104529 0
    outer loop
      vertex 3.91259 -0.831646 99.9
      vertex 4 0 80
      vertex 4 0 99.9
    endloop
  endfacet
  facet normal 0.994522 -0.104529 0
    outer loop
      vertex 4 0 80
      vertex 3.91259 -0.831646 99.9
      vertex 3.91259 -0.831646 80
    endloop
  endfacet
  facet normal 0 1 -0
    outer loop
      vertex 0.418114 3.97809 80
      vertex -0.418114 3.97809 99.9
      vertex 0.418114 3.97809 99.9
    endloop
  endfacet
  facet normal 0 1 0
    outer loop
      vertex -0.418114 3.97809 99.9
      vertex 0.418114 3.97809 80
      vertex -0.418114 3.97809 80
    endloop
  endfacet
  facet normal 0.587785 0.809017 -0
    outer loop
      vertex 2.67652 2.97258 80
      vertex 2 3.4641 99.9
      vertex 2.67652 2.97258 99.9
    endloop
  endfacet
  facet normal 0.587785 0.809017 0
    outer loop
      vertex 2 3.4641 99.9
      vertex 2.67652 2.97258 80
      vertex 2 3.4641 80
    endloop
  endfacet
  facet normal -0.994522 0.104529 0
    outer loop
      vertex -4 0 80
      vertex -3.91259 0.831646 99.9
      vertex -3.91259 0.831646 80
    endloop
  endfacet
  facet normal -0.994522 0.104529 0
    outer loop
      vertex -3.91259 0.831646 99.9
      vertex -4 0 80
      vertex -4 0 99.9
    endloop
  endfacet
  facet normal -0.866026 0.499999 0
    outer loop
      vertex -3.65418 1.62695 80
      vertex -3.23607 2.35114 99.9
      vertex -3.23607 2.35114 80
    endloop
  endfacet
  facet normal -0.866026 0.499999 0
    outer loop
      vertex -3.23607 2.35114 99.9
      vertex -3.65418 1.62695 80
      vertex -3.65418 1.62695 99.9
    endloop
  endfacet
  facet normal -0.587785 0.809017 0
    outer loop
      vertex -2 3.4641 80
      vertex -2.67652 2.97258 99.9
      vertex -2 3.4641 99.9
    endloop
  endfacet
  facet normal -0.587785 0.809017 0
    outer loop
      vertex -2.67652 2.97258 99.9
      vertex -2 3.4641 80
      vertex -2.67652 2.97258 80
    endloop
  endfacet
  facet normal -0.207909 0.978148 0
    outer loop
      vertex -0.418114 3.97809 80
      vertex -1.23607 3.80423 99.9
      vertex -0.418114 3.97809 99.9
    endloop
  endfacet
  facet normal -0.207909 0.978148 0
    outer loop
      vertex -1.23607 3.80423 99.9
      vertex -0.418114 3.97809 80
      vertex -1.23607 3.80423 80
    endloop
  endfacet
  facet normal -0.743143 0.669133 0
    outer loop
      vertex -3.23607 2.35114 80
      vertex -2.67652 2.97258 99.9
      vertex -2.67652 2.97258 80
    endloop
  endfacet
  facet normal -0.743143 0.669133 0
    outer loop
      vertex -2.67652 2.97258 99.9
      vertex -3.23607 2.35114 80
      vertex -3.23607 2.35114 99.9
    endloop
  endfacet
  facet normal 0.994522 0.104529 0
    outer loop
      vertex 4 0 99.9
      vertex 3.91259 0.831646 80
      vertex 3.91259 0.831646 99.9
    endloop
  endfacet
  facet normal 0.994522 0.104529 0
    outer loop
      vertex 3.91259 0.831646 80
      vertex 4 0 99.9
      vertex 4 0 80
    endloop
  endfacet
  facet normal 0.951056 -0.309017 0
    outer loop
      vertex 3.65418 -1.62695 99.9
      vertex 3.91259 -0.831646 80
      vertex 3.91259 -0.831646 99.9
    endloop
  endfacet
  facet normal 0.951056 -0.309017 0
    outer loop
      vertex 3.91259 -0.831646 80
      vertex 3.65418 -1.62695 99.9
      vertex 3.65418 -1.62695 80
    endloop
  endfacet
  facet normal -0.866026 -0.499999 0
    outer loop
      vertex -3.23607 -2.35114 80
      vertex -3.65418 -1.62695 99.9
      vertex -3.65418 -1.62695 80
    endloop
  endfacet
  facet normal -0.866026 -0.499999 0
    outer loop
      vertex -3.65418 -1.62695 99.9
      vertex -3.23607 -2.35114 80
      vertex -3.23607 -2.35114 99.9
    endloop
  endfacet
  facet normal 0.587785 -0.809017 0
    outer loop
      vertex 2 -3.4641 80
      vertex 2.67652 -2.97258 99.9
      vertex 2 -3.4641 99.9
    endloop
  endfacet
  facet normal 0.587785 -0.809017 0
    outer loop
      vertex 2.67652 -2.97258 99.9
      vertex 2 -3.4641 80
      vertex 2.67652 -2.97258 80
    endloop
  endfacet
  facet normal 0.951056 0.309017 0
    outer loop
      vertex 3.91259 0.831646 99.9
      vertex 3.65418 1.62695 80
      vertex 3.65418 1.62695 99.9
    endloop
  endfacet
  facet normal 0.951056 0.309017 0
    outer loop
      vertex 3.65418 1.62695 80
      vertex 3.91259 0.831646 99.9
      vertex 3.91259 0.831646 80
    endloop
  endfacet
  facet normal 0.207909 0.978148 -0
    outer loop
      vertex 1.23607 3.80423 80
      vertex 0.418114 3.97809 99.9
      vertex 1.23607 3.80423 99.9
    endloop
  endfacet
  facet normal 0.207909 0.978148 0
    outer loop
      vertex 0.418114 3.97809 99.9
      vertex 1.23607 3.80423 80
      vertex 0.418114 3.97809 80
    endloop
  endfacet
  facet normal 0 0 1
    outer loop
      vertex 3.91259 0.831646 99.9
      vertex 1.9563 0.415823 99.9
      vertex 2 0 99.9
    endloop
  endfacet
  facet normal 0 0 1
    outer loop
      vertex 2.67652 2.97258 99.9
      vertex 1.82709 0.813473 99.9
      vertex 1.9563 0.415823 99.9
    endloop
  endfacet
  facet normal 0 0 1
    outer loop
      vertex 2.67652 2.97258 99.9
      vertex 1.61803 1.17557 99.9
      vertex 1.82709 0.813473 99.9
    endloop
  endfacet
  facet normal 0 0 1
    outer loop
      vertex 2.67652 2.97258 99.9
      vertex 1.33826 1.48629 99.9
      vertex 1.61803 1.17557 99.9
    endloop
  endfacet
  facet normal 0 0 1
    outer loop
      vertex 1 1.73205 99.9
      vertex 2 3.4641 99.9
      vertex 1.23607 3.80423 99.9
    endloop
  endfacet
  facet normal 0 0 1
    outer loop
      vertex 2 3.4641 99.9
      vertex 1 1.73205 99.9
      vertex 1.33826 1.48629 99.9
    endloop
  endfacet
  facet normal 0 0 1
    outer loop
      vertex 1.23607 3.80423 99.9
      vertex 0.618033 1.90211 99.9
      vertex 1 1.73205 99.9
    endloop
  endfacet
  facet normal 0 0 1
    outer loop
      vertex 0.418114 3.97809 99.9
      vertex 0.618033 1.90211 99.9
      vertex 1.23607 3.80423 99.9
    endloop
  endfacet
  facet normal 0 0 1
    outer loop
      vertex 0.418114 3.97809 99.9
      vertex 0.209057 1.98904 99.9
      vertex 0.618033 1.90211 99.9
    endloop
  endfacet
  facet normal 0 0 1
    outer loop
      vertex 0.418114 3.97809 99.9
      vertex -0.209057 1.98904 99.9
      vertex 0.209057 1.98904 99.9
    endloop
  endfacet
  facet normal -0 0 1
    outer loop
      vertex -0.418114 3.97809 99.9
      vertex -0.209057 1.98904 99.9
      vertex 0.418114 3.97809 99.9
    endloop
  endfacet
  facet normal 0 0 1
    outer loop
      vertex -0.418114 3.97809 99.9
      vertex -0.618033 1.90211 99.9
      vertex -0.209057 1.98904 99.9
    endloop
  endfacet
  facet normal -0 0 1
    outer loop
      vertex -1.23607 3.80423 99.9
      vertex -0.618033 1.90211 99.9
      vertex -0.418114 3.97809 99.9
    endloop
  endfacet
  facet normal 0 0 1
    outer loop
      vertex -0.618033 1.90211 99.9
      vertex -1.23607 3.80423 99.9
      vertex -1 1.73205 99.9
    endloop
  endfacet
  facet normal -0 0 1
    outer loop
      vertex -2 3.4641 99.9
      vertex -1 1.73205 99.9
      vertex -1.23607 3.80423 99.9
    endloop
  endfacet
  facet normal 0 0 1
    outer loop
      vertex -1 1.73205 99.9
      vertex -2 3.4641 99.9
      vertex -1.33826 1.48629 99.9
    endloop
  endfacet
  facet normal -0 0 1
    outer loop
      vertex -2.67652 2.97258 99.9
      vertex -1.33826 1.48629 99.9
      vertex -2 3.4641 99.9
    endloop
  endfacet
  facet normal 0 0 1
    outer loop
      vertex -1.33826 1.48629 99.9
      vertex -2.67652 2.97258 99.9
      vertex -1.61803 1.17557 99.9
    endloop
  endfacet
  facet normal -0 0 1
    outer loop
      vertex -3.23607 2.35114 99.9
      vertex -1.61803 1.17557 99.9
      vertex -2.67652 2.97258 99.9
    endloop
  endfacet
  facet normal 0 0 1
    outer loop
      vertex -1.61803 1.17557 99.9
      vertex -3.23607 2.35114 99.9
      vertex -1.82709 0.813473 99.9
    endloop
  endfacet
  facet normal -0 0 1
    outer loop
      vertex -3.65418 1.62695 99.9
      vertex -1.82709 0.813473 99.9
      vertex -3.23607 2.35114 99.9
    endloop
  endfacet
  facet normal 0 0 1
    outer loop
      vertex -1.82709 0.813473 99.9
      vertex -3.65418 1.62695 99.9
      vertex -1.9563 0.415823 99.9
    endloop
  endfacet
  facet normal 0 0 1
    outer loop
      vertex -2 0 99.9
      vertex -2.67652 -2.97258 99.9
      vertex -2 -3.4641 99.9
    endloop
  endfacet
  facet normal -0 0 1
    outer loop
      vertex -3.91259 0.831646 99.9
      vertex -1.9563 0.415823 99.9
      vertex -3.65418 1.62695 99.9
    endloop
  endfacet
  facet normal 0 0 1
    outer loop
      vertex -2 0 99.9
      vertex -3.23607 -2.35114 99.9
      vertex -2.67652 -2.97258 99.9
    endloop
  endfacet
  facet normal 0 0 1
    outer loop
      vertex -1.9563 0.415823 99.9
      vertex -3.91259 0.831646 99.9
      vertex -2 0 99.9
    endloop
  endfacet
  facet normal 0 0 1
    outer loop
      vertex -2 0 99.9
      vertex -3.65418 -1.62695 99.9
      vertex -3.23607 -2.35114 99.9
    endloop
  endfacet
  facet normal 0 0 1
    outer loop
      vertex -4 0 99.9
      vertex -2 0 99.9
      vertex -3.91259 0.831646 99.9
    endloop
  endfacet
  facet normal 0 0 1
    outer loop
      vertex -2 0 99.9
      vertex -3.91259 -0.831646 99.9
      vertex -3.65418 -1.62695 99.9
    endloop
  endfacet
  facet normal 0 0 1
    outer loop
      vertex -2 0 99.9
      vertex -4 0 99.9
      vertex -3.91259 -0.831646 99.9
    endloop
  endfacet
  facet normal 0 0 1
    outer loop
      vertex 2 0 99.9
      vertex 4 0 99.9
      vertex 3.91259 0.831646 99.9
    endloop
  endfacet
  facet normal 0 0 1
    outer loop
      vertex 1.9563 0.415823 99.9
      vertex 3.91259 0.831646 99.9
      vertex 3.65418 1.62695 99.9
    endloop
  endfacet
  facet normal 0 0 1
    outer loop
      vertex 4 0 99.9
      vertex 2 0 99.9
      vertex 3.91259 -0.831646 99.9
    endloop
  endfacet
  facet normal 0 0 1
    outer loop
      vertex 1.9563 0.415823 99.9
      vertex 3.65418 1.62695 99.9
      vertex 3.23607 2.35114 99.9
    endloop
  endfacet
  facet normal -0 0 1
    outer loop
      vertex 1.9563 -0.415823 99.9
      vertex 3.91259 -0.831646 99.9
      vertex 2 0 99.9
    endloop
  endfacet
  facet normal 0 0 1
    outer loop
      vertex 1.9563 0.415823 99.9
      vertex 3.23607 2.35114 99.9
      vertex 2.67652 2.97258 99.9
    endloop
  endfacet
  facet normal 0 0 1
    outer loop
      vertex 3.91259 -0.831646 99.9
      vertex 1.9563 -0.415823 99.9
      vertex 3.65418 -1.62695 99.9
    endloop
  endfacet
  facet normal 0 0 1
    outer loop
      vertex 1.33826 1.48629 99.9
      vertex 2.67652 2.97258 99.9
      vertex 2 3.4641 99.9
    endloop
  endfacet
  facet normal -0 0 1
    outer loop
      vertex 1.82709 -0.813473 99.9
      vertex 3.65418 -1.62695 99.9
      vertex 1.9563 -0.415823 99.9
    endloop
  endfacet
  facet normal 0 0 1
    outer loop
      vertex 3.65418 -1.62695 99.9
      vertex 1.82709 -0.813473 99.9
      vertex 3.23607 -2.35114 99.9
    endloop
  endfacet
  facet normal -0 0 1
    outer loop
      vertex 1.61803 -1.17557 99.9
      vertex 3.23607 -2.35114 99.9
      vertex 1.82709 -0.813473 99.9
    endloop
  endfacet
  facet normal 0 0 1
    outer loop
      vertex 3.23607 -2.35114 99.9
      vertex 1.61803 -1.17557 99.9
      vertex 2.67652 -2.97258 99.9
    endloop
  endfacet
  facet normal -0 0 1
    outer loop
      vertex 1.33826 -1.48629 99.9
      vertex 2.67652 -2.97258 99.9
      vertex 1.61803 -1.17557 99.9
    endloop
  endfacet
  facet normal 0 0 1
    outer loop
      vertex 2.67652 -2.97258 99.9
      vertex 1.33826 -1.48629 99.9
      vertex 2 -3.4641 99.9
    endloop
  endfacet
  facet normal -0 0 1
    outer loop
      vertex 1 -1.73205 99.9
      vertex 2 -3.4641 99.9
      vertex 1.33826 -1.48629 99.9
    endloop
  endfacet
  facet normal 0 0 1
    outer loop
      vertex 2 -3.4641 99.9
      vertex 1 -1.73205 99.9
      vertex 1.23607 -3.80423 99.9
    endloop
  endfacet
  facet normal -0 0 1
    outer loop
      vertex 0.618033 -1.90211 99.9
      vertex 1.23607 -3.80423 99.9
      vertex 1 -1.73205 99.9
    endloop
  endfacet
  facet normal 0 0 1
    outer loop
      vertex 0.618033 -1.90211 99.9
      vertex 0.418114 -3.97809 99.9
      vertex 1.23607 -3.80423 99.9
    endloop
  endfacet
  facet normal -0 0 1
    outer loop
      vertex 0.209057 -1.98904 99.9
      vertex 0.418114 -3.97809 99.9
      vertex 0.618033 -1.90211 99.9
    endloop
  endfacet
  facet normal -0 0 1
    outer loop
      vertex -0.209057 -1.98904 99.9
      vertex 0.418114 -3.97809 99.9
      vertex 0.209057 -1.98904 99.9
    endloop
  endfacet
  facet normal 0 0 1
    outer loop
      vertex -0.209057 -1.98904 99.9
      vertex -0.418114 -3.97809 99.9
      vertex 0.418114 -3.97809 99.9
    endloop
  endfacet
  facet normal 0 0 1
    outer loop
      vertex -0.618033 -1.90211 99.9
      vertex -0.418114 -3.97809 99.9
      vertex -0.209057 -1.98904 99.9
    endloop
  endfacet
  facet normal 0 0 1
    outer loop
      vertex -1.23607 -3.80423 99.9
      vertex -0.618033 -1.90211 99.9
      vertex -1 -1.73205 99.9
    endloop
  endfacet
  facet normal 0 0 1
    outer loop
      vertex -0.618033 -1.90211 99.9
      vertex -1.23607 -3.80423 99.9
      vertex -0.418114 -3.97809 99.9
    endloop
  endfacet
  facet normal 0 0 1
    outer loop
      vertex -2 -3.4641 99.9
      vertex -1 -1.73205 99.9
      vertex -1.33826 -1.48629 99.9
    endloop
  endfacet
  facet normal 0 0 1
    outer loop
      vertex -2 -3.4641 99.9
      vertex -1.33826 -1.48629 99.9
      vertex -1.61803 -1.17557 99.9
    endloop
  endfacet
  facet normal 0 0 1
    outer loop
      vertex -2 -3.4641 99.9
      vertex -1.61803 -1.17557 99.9
      vertex -1.82709 -0.813473 99.9
    endloop
  endfacet
  facet normal 0 0 1
    outer loop
      vertex -2 -3.4641 99.9
      vertex -1.82709 -0.813473 99.9
      vertex -1.9563 -0.415823 99.9
    endloop
  endfacet
  facet normal 0 0 1
    outer loop
      vertex -1 -1.73205 99.9
      vertex -2 -3.4641 99.9
      vertex -1.23607 -3.80423 99.9
    endloop
  endfacet
  facet normal 0 0 1
    outer loop
      vertex -2 -3.4641 99.9
      vertex -1.9563 -0.415823 99.9
      vertex -2 0 99.9
    endloop
  endfacet
  facet normal 0.866026 -0.499999 0
    outer loop
      vertex 3.23607 -2.35114 99.9
      vertex 3.65418 -1.62695 80
      vertex 3.65418 -1.62695 99.9
    endloop
  endfacet
  facet normal 0.866026 -0.499999 0
    outer loop
      vertex 3.65418 -1.62695 80
      vertex 3.23607 -2.35114 99.9
      vertex 3.23607 -2.35114 80
    endloop
  endfacet
  facet normal -0.994522 -0.104529 0
    outer loop
      vertex -3.91259 -0.831646 80
      vertex -4 0 99.9
      vertex -4 0 80
    endloop
  endfacet
  facet normal -0.994522 -0.104529 0
    outer loop
      vertex -4 0 99.9
      vertex -3.91259 -0.831646 80
      vertex -3.91259 -0.831646 99.9
    endloop
  endfacet
  facet normal 0.207909 -0.978148 0
    outer loop
      vertex 0.418114 -3.97809 80
      vertex 1.23607 -3.80423 99.9
      vertex 0.418114 -3.97809 99.9
    endloop
  endfacet
  facet normal 0.207909 -0.978148 0
    outer loop
      vertex 1.23607 -3.80423 99.9
      vertex 0.418114 -3.97809 80
      vertex 1.23607 -3.80423 80
    endloop
  endfacet
  facet normal 0.406743 -0.913543 0
    outer loop
      vertex 1.23607 -3.80423 80
      vertex 2 -3.4641 99.9
      vertex 1.23607 -3.80423 99.9
    endloop
  endfacet
  facet normal 0.406743 -0.913543 0
    outer loop
      vertex 2 -3.4641 99.9
      vertex 1.23607 -3.80423 80
      vertex 2 -3.4641 80
    endloop
  endfacet
  facet normal -0.207909 -0.978148 0
    outer loop
      vertex -1.23607 -3.80423 80
      vertex -0.418114 -3.97809 99.9
      vertex -1.23607 -3.80423 99.9
    endloop
  endfacet
  facet normal -0.207909 -0.978148 -0
    outer loop
      vertex -0.418114 -3.97809 99.9
      vertex -1.23607 -3.80423 80
      vertex -0.418114 -3.97809 80
    endloop
  endfacet
  facet normal 0 -1 0
    outer loop
      vertex -0.418114 -3.97809 80
      vertex 0.418114 -3.97809 99.9
      vertex -0.418114 -3.97809 99.9
    endloop
  endfacet
  facet normal 0 -1 -0
    outer loop
      vertex 0.418114 -3.97809 99.9
      vertex -0.418114 -3.97809 80
      vertex 0.418114 -3.97809 80
    endloop
  endfacet
  facet normal -0.951056 -0.309017 0
    outer loop
      vertex -3.65418 -1.62695 80
      vertex -3.91259 -0.831646 99.9
      vertex -3.91259 -0.831646 80
    endloop
  endfacet
  facet normal -0.951056 -0.309017 0
    outer loop
      vertex -3.91259 -0.831646 99.9
      vertex -3.65418 -1.62695 80
      vertex -3.65418 -1.62695 99.9
    endloop
  endfacet
  facet normal -0.743143 -0.669133 0
    outer loop
      vertex -2.67652 -2.97258 80
      vertex -3.23607 -2.35114 99.9
      vertex -3.23607 -2.35114 80
    endloop
  endfacet
  facet normal -0.743143 -0.669133 0
    outer loop
      vertex -3.23607 -2.35114 99.9
      vertex -2.67652 -2.97258 80
      vertex -2.67652 -2.97258 99.9
    endloop
  endfacet
  facet normal 0.743143 -0.669133 0
    outer loop
      vertex 2.67652 -2.97258 99.9
      vertex 3.23607 -2.35114 80
      vertex 3.23607 -2.35114 99.9
    endloop
  endfacet
  facet normal 0.743143 -0.669133 0
    outer loop
      vertex 3.23607 -2.35114 80
      vertex 2.67652 -2.97258 99.9
      vertex 2.67652 -2.97258 80
    endloop
  endfacet
  facet normal -0.587785 -0.809017 0
    outer loop
      vertex -2.67652 -2.97258 80
      vertex -2 -3.4641 99.9
      vertex -2.67652 -2.97258 99.9
    endloop
  endfacet
  facet normal -0.587785 -0.809017 -0
    outer loop
      vertex -2 -3.4641 99.9
      vertex -2.67652 -2.97258 80
      vertex -2 -3.4641 80
    endloop
  endfacet
  facet normal -0.406743 -0.913543 0
    outer loop
      vertex -2 -3.4641 80
      vertex -1.23607 -3.80423 99.9
      vertex -2 -3.4641 99.9
    endloop
  endfacet
  facet normal -0.406743 -0.913543 -0
    outer loop
      vertex -1.23607 -3.80423 99.9
      vertex -2 -3.4641 80
      vertex -1.23607 -3.80423 80
    endloop
  endfacet
  facet normal -0.866022 -0.500006 0
    outer loop
      vertex 1.82709 0.813473 90
      vertex 1.61803 1.17557 99.9
      vertex 1.61803 1.17557 90
    endloop
  endfacet
  facet normal -0.866022 -0.500006 0
    outer loop
      vertex 1.61803 1.17557 99.9
      vertex 1.82709 0.813473 90
      vertex 1.82709 0.813473 99.9
    endloop
  endfacet
  facet normal 0.994523 -0.104517 0
    outer loop
      vertex -2 0 99.9
      vertex -1.9563 0.415823 90
      vertex -1.9563 0.415823 99.9
    endloop
  endfacet
  facet normal 0.994523 -0.104517 0
    outer loop
      vertex -1.9563 0.415823 90
      vertex -2 0 99.9
      vertex -2 0 90
    endloop
  endfacet
  facet normal -0.743149 -0.669126 0
    outer loop
      vertex 1.61803 1.17557 90
      vertex 1.33826 1.48629 99.9
      vertex 1.33826 1.48629 90
    endloop
  endfacet
  facet normal -0.743149 -0.669126 0
    outer loop
      vertex 1.33826 1.48629 99.9
      vertex 1.61803 1.17557 90
      vertex 1.61803 1.17557 99.9
    endloop
  endfacet
  facet normal -0.20791 -0.978148 0
    outer loop
      vertex 0.209057 1.98904 90
      vertex 0.618033 1.90211 99.9
      vertex 0.209057 1.98904 99.9
    endloop
  endfacet
  facet normal -0.20791 -0.978148 -0
    outer loop
      vertex 0.618033 1.90211 99.9
      vertex 0.209057 1.98904 90
      vertex 0.618033 1.90211 90
    endloop
  endfacet
  facet normal 0.406731 -0.913548 0
    outer loop
      vertex -1 1.73205 90
      vertex -0.618033 1.90211 99.9
      vertex -1 1.73205 99.9
    endloop
  endfacet
  facet normal 0.406731 -0.913548 0
    outer loop
      vertex -0.618033 1.90211 99.9
      vertex -1 1.73205 90
      vertex -0.618033 1.90211 90
    endloop
  endfacet
  facet normal 0.951053 -0.309029 0
    outer loop
      vertex -1.9563 0.415823 99.9
      vertex -1.82709 0.813473 90
      vertex -1.82709 0.813473 99.9
    endloop
  endfacet
  facet normal 0.951053 -0.309029 0
    outer loop
      vertex -1.82709 0.813473 90
      vertex -1.9563 0.415823 99.9
      vertex -1.9563 0.415823 90
    endloop
  endfacet
  facet normal -0.994523 0.104517 0
    outer loop
      vertex 1.9563 -0.415823 90
      vertex 2 0 99.9
      vertex 2 0 90
    endloop
  endfacet
  facet normal -0.994523 0.104517 0
    outer loop
      vertex 2 0 99.9
      vertex 1.9563 -0.415823 90
      vertex 1.9563 -0.415823 99.9
    endloop
  endfacet
  facet normal -0.951053 -0.309029 0
    outer loop
      vertex 1.9563 0.415823 90
      vertex 1.82709 0.813473 99.9
      vertex 1.82709 0.813473 90
    endloop
  endfacet
  facet normal -0.951053 -0.309029 0
    outer loop
      vertex 1.82709 0.813473 99.9
      vertex 1.9563 0.415823 90
      vertex 1.9563 0.415823 99.9
    endloop
  endfacet
  facet normal -0.587785 -0.809017 0
    outer loop
      vertex 1 1.73205 90
      vertex 1.33826 1.48629 99.9
      vertex 1 1.73205 99.9
    endloop
  endfacet
  facet normal -0.587785 -0.809017 -0
    outer loop
      vertex 1.33826 1.48629 99.9
      vertex 1 1.73205 90
      vertex 1.33826 1.48629 90
    endloop
  endfacet
  facet normal 0 -1 0
    outer loop
      vertex -0.209057 1.98904 90
      vertex 0.209057 1.98904 99.9
      vertex -0.209057 1.98904 99.9
    endloop
  endfacet
  facet normal 0 -1 -0
    outer loop
      vertex 0.209057 1.98904 99.9
      vertex -0.209057 1.98904 90
      vertex 0.209057 1.98904 90
    endloop
  endfacet
  facet normal -0.406731 -0.913548 0
    outer loop
      vertex 0.618033 1.90211 90
      vertex 1 1.73205 99.9
      vertex 0.618033 1.90211 99.9
    endloop
  endfacet
  facet normal -0.406731 -0.913548 -0
    outer loop
      vertex 1 1.73205 99.9
      vertex 0.618033 1.90211 90
      vertex 1 1.73205 90
    endloop
  endfacet
  facet normal 0.866022 -0.500006 0
    outer loop
      vertex -1.82709 0.813473 99.9
      vertex -1.61803 1.17557 90
      vertex -1.61803 1.17557 99.9
    endloop
  endfacet
  facet normal 0.866022 -0.500006 0
    outer loop
      vertex -1.61803 1.17557 90
      vertex -1.82709 0.813473 99.9
      vertex -1.82709 0.813473 90
    endloop
  endfacet
  facet normal 0.587785 -0.809017 0
    outer loop
      vertex -1.33826 1.48629 90
      vertex -1 1.73205 99.9
      vertex -1.33826 1.48629 99.9
    endloop
  endfacet
  facet normal 0.587785 -0.809017 0
    outer loop
      vertex -1 1.73205 99.9
      vertex -1.33826 1.48629 90
      vertex -1 1.73205 90
    endloop
  endfacet
  facet normal 0.20791 -0.978148 0
    outer loop
      vertex -0.618033 1.90211 90
      vertex -0.209057 1.98904 99.9
      vertex -0.618033 1.90211 99.9
    endloop
  endfacet
  facet normal 0.20791 -0.978148 0
    outer loop
      vertex -0.209057 1.98904 99.9
      vertex -0.618033 1.90211 90
      vertex -0.209057 1.98904 90
    endloop
  endfacet
  facet normal 0.743149 -0.669126 0
    outer loop
      vertex -1.61803 1.17557 99.9
      vertex -1.33826 1.48629 90
      vertex -1.33826 1.48629 99.9
    endloop
  endfacet
  facet normal 0.743149 -0.669126 0
    outer loop
      vertex -1.33826 1.48629 90
      vertex -1.61803 1.17557 99.9
      vertex -1.61803 1.17557 90
    endloop
  endfacet
  facet normal -0.994523 -0.104517 0
    outer loop
      vertex 2 0 90
      vertex 1.9563 0.415823 99.9
      vertex 1.9563 0.415823 90
    endloop
  endfacet
  facet normal -0.994523 -0.104517 0
    outer loop
      vertex 1.9563 0.415823 99.9
      vertex 2 0 90
      vertex 2 0 99.9
    endloop
  endfacet
  facet normal -0.951053 0.309029 0
    outer loop
      vertex 1.82709 -0.813473 90
      vertex 1.9563 -0.415823 99.9
      vertex 1.9563 -0.415823 90
    endloop
  endfacet
  facet normal -0.951053 0.309029 0
    outer loop
      vertex 1.9563 -0.415823 99.9
      vertex 1.82709 -0.813473 90
      vertex 1.82709 -0.813473 99.9
    endloop
  endfacet
  facet normal 0.994523 0.104517 0
    outer loop
      vertex -1.9563 -0.415823 99.9
      vertex -2 0 90
      vertex -2 0 99.9
    endloop
  endfacet
  facet normal 0.994523 0.104517 0
    outer loop
      vertex -2 0 90
      vertex -1.9563 -0.415823 99.9
      vertex -1.9563 -0.415823 90
    endloop
  endfacet
  facet normal -0.587785 0.809017 0
    outer loop
      vertex 1.33826 -1.48629 90
      vertex 1 -1.73205 99.9
      vertex 1.33826 -1.48629 99.9
    endloop
  endfacet
  facet normal -0.587785 0.809017 0
    outer loop
      vertex 1 -1.73205 99.9
      vertex 1.33826 -1.48629 90
      vertex 1 -1.73205 90
    endloop
  endfacet
  facet normal -0.866022 0.500006 0
    outer loop
      vertex 1.61803 -1.17557 90
      vertex 1.82709 -0.813473 99.9
      vertex 1.82709 -0.813473 90
    endloop
  endfacet
  facet normal -0.866022 0.500006 0
    outer loop
      vertex 1.82709 -0.813473 99.9
      vertex 1.61803 -1.17557 90
      vertex 1.61803 -1.17557 99.9
    endloop
  endfacet
  facet normal 0 1 -0
    outer loop
      vertex 0.209057 -1.98904 90
      vertex -0.209057 -1.98904 99.9
      vertex 0.209057 -1.98904 99.9
    endloop
  endfacet
  facet normal 0 1 0
    outer loop
      vertex -0.209057 -1.98904 99.9
      vertex 0.209057 -1.98904 90
      vertex -0.209057 -1.98904 90
    endloop
  endfacet
  facet normal -0.20791 0.978148 0
    outer loop
      vertex 0.618033 -1.90211 90
      vertex 0.209057 -1.98904 99.9
      vertex 0.618033 -1.90211 99.9
    endloop
  endfacet
  facet normal -0.20791 0.978148 0
    outer loop
      vertex 0.209057 -1.98904 99.9
      vertex 0.618033 -1.90211 90
      vertex 0.209057 -1.98904 90
    endloop
  endfacet
  facet normal -0.406731 0.913548 0
    outer loop
      vertex 1 -1.73205 90
      vertex 0.618033 -1.90211 99.9
      vertex 1 -1.73205 99.9
    endloop
  endfacet
  facet normal -0.406731 0.913548 0
    outer loop
      vertex 0.618033 -1.90211 99.9
      vertex 1 -1.73205 90
      vertex 0.618033 -1.90211 90
    endloop
  endfacet
  facet normal 0.866022 0.500006 0
    outer loop
      vertex -1.61803 -1.17557 99.9
      vertex -1.82709 -0.813473 90
      vertex -1.82709 -0.813473 99.9
    endloop
  endfacet
  facet normal 0.866022 0.500006 0
    outer loop
      vertex -1.82709 -0.813473 90
      vertex -1.61803 -1.17557 99.9
      vertex -1.61803 -1.17557 90
    endloop
  endfacet
  facet normal 0 0 1
    outer loop
      vertex 1.9563 0.415823 90
      vertex 1.9563 -0.415823 90
      vertex 2 0 90
    endloop
  endfacet
  facet normal 0 0 1
    outer loop
      vertex 1.82709 0.813473 90
      vertex 1.9563 -0.415823 90
      vertex 1.9563 0.415823 90
    endloop
  endfacet
  facet normal 0 0 1
    outer loop
      vertex 1.82709 0.813473 90
      vertex 1.82709 -0.813473 90
      vertex 1.9563 -0.415823 90
    endloop
  endfacet
  facet normal 0 0 1
    outer loop
      vertex 1.61803 1.17557 90
      vertex 1.82709 -0.813473 90
      vertex 1.82709 0.813473 90
    endloop
  endfacet
  facet normal 0 0 1
    outer loop
      vertex 1.61803 1.17557 90
      vertex 1.61803 -1.17557 90
      vertex 1.82709 -0.813473 90
    endloop
  endfacet
  facet normal 0 0 1
    outer loop
      vertex 1.33826 1.48629 90
      vertex 1.61803 -1.17557 90
      vertex 1.61803 1.17557 90
    endloop
  endfacet
  facet normal 0 0 1
    outer loop
      vertex 1.33826 1.48629 90
      vertex 1.33826 -1.48629 90
      vertex 1.61803 -1.17557 90
    endloop
  endfacet
  facet normal 0 0 1
    outer loop
      vertex 1 1.73205 90
      vertex 1.33826 -1.48629 90
      vertex 1.33826 1.48629 90
    endloop
  endfacet
  facet normal 0 0 1
    outer loop
      vertex 1 1.73205 90
      vertex 1 -1.73205 90
      vertex 1.33826 -1.48629 90
    endloop
  endfacet
  facet normal 0 0 1
    outer loop
      vertex 0.618033 1.90211 90
      vertex 1 -1.73205 90
      vertex 1 1.73205 90
    endloop
  endfacet
  facet normal 0 0 1
    outer loop
      vertex 0.618033 1.90211 90
      vertex 0.618033 -1.90211 90
      vertex 1 -1.73205 90
    endloop
  endfacet
  facet normal 0 0 1
    outer loop
      vertex 0.209057 1.98904 90
      vertex 0.618033 -1.90211 90
      vertex 0.618033 1.90211 90
    endloop
  endfacet
  facet normal 0 0 1
    outer loop
      vertex 0.209057 1.98904 90
      vertex 0.209057 -1.98904 90
      vertex 0.618033 -1.90211 90
    endloop
  endfacet
  facet normal -0 0 1
    outer loop
      vertex -0.209057 1.98904 90
      vertex 0.209057 -1.98904 90
      vertex 0.209057 1.98904 90
    endloop
  endfacet
  facet normal 0 0 1
    outer loop
      vertex -0.209057 1.98904 90
      vertex -0.209057 -1.98904 90
      vertex 0.209057 -1.98904 90
    endloop
  endfacet
  facet normal -0 0 1
    outer loop
      vertex -0.618033 1.90211 90
      vertex -0.209057 -1.98904 90
      vertex -0.209057 1.98904 90
    endloop
  endfacet
  facet normal 0 0 1
    outer loop
      vertex -0.618033 1.90211 90
      vertex -0.618033 -1.90211 90
      vertex -0.209057 -1.98904 90
    endloop
  endfacet
  facet normal -0 0 1
    outer loop
      vertex -1 1.73205 90
      vertex -0.618033 -1.90211 90
      vertex -0.618033 1.90211 90
    endloop
  endfacet
  facet normal 0 0 1
    outer loop
      vertex -1 1.73205 90
      vertex -1 -1.73205 90
      vertex -0.618033 -1.90211 90
    endloop
  endfacet
  facet normal -0 0 1
    outer loop
      vertex -1.33826 1.48629 90
      vertex -1 -1.73205 90
      vertex -1 1.73205 90
    endloop
  endfacet
  facet normal 0 0 1
    outer loop
      vertex -1.33826 1.48629 90
      vertex -1.33826 -1.48629 90
      vertex -1 -1.73205 90
    endloop
  endfacet
  facet normal -0 0 1
    outer loop
      vertex -1.61803 1.17557 90
      vertex -1.33826 -1.48629 90
      vertex -1.33826 1.48629 90
    endloop
  endfacet
  facet normal 0 0 1
    outer loop
      vertex -1.61803 1.17557 90
      vertex -1.61803 -1.17557 90
      vertex -1.33826 -1.48629 90
    endloop
  endfacet
  facet normal -0 0 1
    outer loop
      vertex -1.82709 0.813473 90
      vertex -1.61803 -1.17557 90
      vertex -1.61803 1.17557 90
    endloop
  endfacet
  facet normal 0 0 1
    outer loop
      vertex -1.82709 0.813473 90
      vertex -1.82709 -0.813473 90
      vertex -1.61803 -1.17557 90
    endloop
  endfacet
  facet normal -0 0 1
    outer loop
      vertex -1.9563 0.415823 90
      vertex -1.82709 -0.813473 90
      vertex -1.82709 0.813473 90
    endloop
  endfacet
  facet normal 0 0 1
    outer loop
      vertex -1.9563 0.415823 90
      vertex -1.9563 -0.415823 90
      vertex -1.82709 -0.813473 90
    endloop
  endfacet
  facet normal 0 -0 1
    outer loop
      vertex -1.9563 -0.415823 90
      vertex -1.9563 0.415823 90
      vertex -2 0 90
    endloop
  endfacet
  facet normal 0.951053 0.309029 0
    outer loop
      vertex -1.82709 -0.813473 99.9
      vertex -1.9563 -0.415823 90
      vertex -1.9563 -0.415823 99.9
    endloop
  endfacet
  facet normal 0.951053 0.309029 0
    outer loop
      vertex -1.9563 -0.415823 90
      vertex -1.82709 -0.813473 99.9
      vertex -1.82709 -0.813473 90
    endloop
  endfacet
  facet normal 0.743149 0.669126 0
    outer loop
      vertex -1.33826 -1.48629 99.9
      vertex -1.61803 -1.17557 90
      vertex -1.61803 -1.17557 99.9
    endloop
  endfacet
  facet normal 0.743149 0.669126 0
    outer loop
      vertex -1.61803 -1.17557 90
      vertex -1.33826 -1.48629 99.9
      vertex -1.33826 -1.48629 90
    endloop
  endfacet
  facet normal 0.20791 0.978148 -0
    outer loop
      vertex -0.209057 -1.98904 90
      vertex -0.618033 -1.90211 99.9
      vertex -0.209057 -1.98904 99.9
    endloop
  endfacet
  facet normal 0.20791 0.978148 0
    outer loop
      vertex -0.618033 -1.90211 99.9
      vertex -0.209057 -1.98904 90
      vertex -0.618033 -1.90211 90
    endloop
  endfacet
  facet normal -0.743149 0.669126 0
    outer loop
      vertex 1.33826 -1.48629 90
      vertex 1.61803 -1.17557 99.9
      vertex 1.61803 -1.17557 90
    endloop
  endfacet
  facet normal -0.743149 0.669126 0
    outer loop
      vertex 1.61803 -1.17557 99.9
      vertex 1.33826 -1.48629 90
      vertex 1.33826 -1.48629 99.9
    endloop
  endfacet
  facet normal 0.406731 0.913548 -0
    outer loop
      vertex -0.618033 -1.90211 90
      vertex -1 -1.73205 99.9
      vertex -0.618033 -1.90211 99.9
    endloop
  endfacet
  facet normal 0.406731 0.913548 0
    outer loop
      vertex -1 -1.73205 99.9
      vertex -0.618033 -1.90211 90
      vertex -1 -1.73205 90
    endloop
  endfacet
  facet normal 0.587785 0.809017 -0
    outer loop
      vertex -1 -1.73205 90
      vertex -1.33826 -1.48629 99.9
      vertex -1 -1.73205 99.9
    endloop
  endfacet
  facet normal 0.587785 0.809017 0
    outer loop
      vertex -1.33826 -1.48629 99.9
      vertex -1 -1.73205 90
      vertex -1.33826 -1.48629 90
    endloop
  endfacet
  facet normal -1 0 0
    outer loop
      vertex 2.5 -3.5 -0.5
      vertex 2.5 3.5 0
      vertex 2.5 3.5 -0.5
    endloop
  endfacet
  facet normal -1 -0 0
    outer loop
      vertex 2.5 3.5 0
      vertex 2.5 -3.5 -0.5
      vertex 2.5 -3.5 0
    endloop
  endfacet
  facet normal 0 0 1
    outer loop
      vertex -12.5 -10 0.5
      vertex -6 0 0.5
      vertex -12.5 10 0.5
    endloop
  endfacet
  facet normal 0 0 1
    outer loop
      vertex -6 0 0.5
      vertex -12.5 -10 0.5
      vertex -10 -10 0.5
    endloop
  endfacet
  facet normal 0 0 1
    outer loop
      vertex 0 6 0.5
      vertex 10 10 0.5
      vertex 10 13.5 0.5
    endloop
  endfacet
  facet normal 0 0 1
    outer loop
      vertex 10 10 0.5
      vertex 6 0 0.5
      vertex 10 -10 0.5
    endloop
  endfacet
  facet normal -0 0 1
    outer loop
      vertex 0 -6 0.5
      vertex 10 -10 0.5
      vertex 6 0 0.5
    endloop
  endfacet
  facet normal 0 0 1
    outer loop
      vertex 10 10 0.5
      vertex 0 6 0.5
      vertex 6 0 0.5
    endloop
  endfacet
  facet normal -0 0 1
    outer loop
      vertex -10 10 0.5
      vertex 0 6 0.5
      vertex -10 13.5 0.5
    endloop
  endfacet
  facet normal -0 0 1
    outer loop
      vertex -10 13.5 0.5
      vertex 0 6 0.5
      vertex 10 13.5 0.5
    endloop
  endfacet
  facet normal -0 0 1
    outer loop
      vertex 10 10 0.5
      vertex 12.5 -10 0.5
      vertex 12.5 10 0.5
    endloop
  endfacet
  facet normal 0 0 1
    outer loop
      vertex 12.5 -10 0.5
      vertex 10 10 0.5
      vertex 10 -10 0.5
    endloop
  endfacet
  facet normal 0 0 1
    outer loop
      vertex 10 -10 0.5
      vertex 0 -6 0.5
      vertex 10 -13.5 0.5
    endloop
  endfacet
  facet normal 0 0 1
    outer loop
      vertex 0 6 0.5
      vertex -10 10 0.5
      vertex -6 0 0.5
    endloop
  endfacet
  facet normal -0 0 1
    outer loop
      vertex -12.5 10 0.5
      vertex -6 0 0.5
      vertex -10 10 0.5
    endloop
  endfacet
  facet normal 0 0 1
    outer loop
      vertex -10 -10 0.5
      vertex 0 -6 0.5
      vertex -6 0 0.5
    endloop
  endfacet
  facet normal 0 0 1
    outer loop
      vertex -10 -13.5 0.5
      vertex 0 -6 0.5
      vertex -10 -10 0.5
    endloop
  endfacet
  facet normal 0 0 1
    outer loop
      vertex 0 -6 0.5
      vertex -10 -13.5 0.5
      vertex 10 -13.5 0.5
    endloop
  endfacet
  facet normal 1 -0 0
    outer loop
      vertex 12.5 -10 0.5
      vertex 12.5 10 -0.5
      vertex 12.5 10 0.5
    endloop
  endfacet
  facet normal 1 0 0
    outer loop
      vertex 12.5 10 -0.5
      vertex 12.5 -10 0.5
      vertex 12.5 -10 -0.5
    endloop
  endfacet
  facet normal 0 1 -0
    outer loop
      vertex 12.5 10 -0.5
      vertex 10 10 0.5
      vertex 12.5 10 0.5
    endloop
  endfacet
  facet normal 0 1 0
    outer loop
      vertex 10 10 0.5
      vertex 12.5 10 -0.5
      vertex 10 10 -0.5
    endloop
  endfacet
  facet normal 0 0 -1
    outer loop
      vertex -12.5 10 -0.5
      vertex -2.5 3.5 -0.5
      vertex -12.5 -10 -0.5
    endloop
  endfacet
  facet normal 0 0 -1
    outer loop
      vertex -2.5 3.5 -0.5
      vertex -12.5 10 -0.5
      vertex -10 10 -0.5
    endloop
  endfacet
  facet normal 0 0 -1
    outer loop
      vertex 2.5 -3.5 -0.5
      vertex 10 -10 -0.5
      vertex 10 -13.5 -0.5
    endloop
  endfacet
  facet normal 0 0 -1
    outer loop
      vertex 10 -10 -0.5
      vertex 2.5 -3.5 -0.5
      vertex 10 10 -0.5
    endloop
  endfacet
  facet normal 0 0 -1
    outer loop
      vertex 2.5 3.5 -0.5
      vertex 10 10 -0.5
      vertex 2.5 -3.5 -0.5
    endloop
  endfacet
  facet normal 0 0 -1
    outer loop
      vertex 10 -13.5 -0.5
      vertex -2.5 -3.5 -0.5
      vertex 2.5 -3.5 -0.5
    endloop
  endfacet
  facet normal 0 0 -1
    outer loop
      vertex -10 -10 -0.5
      vertex -2.5 -3.5 -0.5
      vertex -10 -13.5 -0.5
    endloop
  endfacet
  facet normal 0 0 -1
    outer loop
      vertex -10 -13.5 -0.5
      vertex -2.5 -3.5 -0.5
      vertex 10 -13.5 -0.5
    endloop
  endfacet
  facet normal 0 0 -1
    outer loop
      vertex 10 -10 -0.5
      vertex 12.5 10 -0.5
      vertex 12.5 -10 -0.5
    endloop
  endfacet
  facet normal -0 0 -1
    outer loop
      vertex 12.5 10 -0.5
      vertex 10 -10 -0.5
      vertex 10 10 -0.5
    endloop
  endfacet
  facet normal -0 0 -1
    outer loop
      vertex 10 10 -0.5
      vertex 2.5 3.5 -0.5
      vertex 10 13.5 -0.5
    endloop
  endfacet
  facet normal 0 0 -1
    outer loop
      vertex -2.5 3.5 -0.5
      vertex 10 13.5 -0.5
      vertex 2.5 3.5 -0.5
    endloop
  endfacet
  facet normal 0 0 -1
    outer loop
      vertex -12.5 -10 -0.5
      vertex -2.5 -3.5 -0.5
      vertex -10 -10 -0.5
    endloop
  endfacet
  facet normal -0 0 -1
    outer loop
      vertex -2.5 -3.5 -0.5
      vertex -12.5 -10 -0.5
      vertex -2.5 3.5 -0.5
    endloop
  endfacet
  facet normal 0 0 -1
    outer loop
      vertex -10 13.5 -0.5
      vertex -2.5 3.5 -0.5
      vertex -10 10 -0.5
    endloop
  endfacet
  facet normal 0 0 -1
    outer loop
      vertex -2.5 3.5 -0.5
      vertex -10 13.5 -0.5
      vertex 10 13.5 -0.5
    endloop
  endfacet
  facet normal 0 -1 0
    outer loop
      vertex 10 -10 -0.5
      vertex 12.5 -10 0.5
      vertex 10 -10 0.5
    endloop
  endfacet
  facet normal 0 -1 -0
    outer loop
      vertex 12.5 -10 0.5
      vertex 10 -10 -0.5
      vertex 12.5 -10 -0.5
    endloop
  endfacet
  facet normal -1 0 0
    outer loop
      vertex -12.5 -10 -0.5
      vertex -12.5 10 0.5
      vertex -12.5 10 -0.5
    endloop
  endfacet
  facet normal -1 -0 0
    outer loop
      vertex -12.5 10 0.5
      vertex -12.5 -10 -0.5
      vertex -12.5 -10 0.5
    endloop
  endfacet
  facet normal 1 -0 0
    outer loop
      vertex -2.5 -3.5 0
      vertex -2.5 3.5 -0.5
      vertex -2.5 3.5 0
    endloop
  endfacet
  facet normal 1 0 0
    outer loop
      vertex -2.5 3.5 -0.5
      vertex -2.5 -3.5 0
      vertex -2.5 -3.5 -0.5
    endloop
  endfacet
  facet normal 0 -1 0
    outer loop
      vertex -12.5 -10 -0.5
      vertex -10 -10 0.5
      vertex -12.5 -10 0.5
    endloop
  endfacet
  facet normal 0 -1 -0
    outer loop
      vertex -10 -10 0.5
      vertex -12.5 -10 -0.5
      vertex -10 -10 -0.5
    endloop
  endfacet
  facet normal 0 1 -0
    outer loop
      vertex -10 10 -0.5
      vertex -12.5 10 0.5
      vertex -10 10 0.5
    endloop
  endfacet
  facet normal 0 1 0
    outer loop
      vertex -12.5 10 0.5
      vertex -10 10 -0.5
      vertex -12.5 10 -0.5
    endloop
  endfacet
  facet normal -1 0 0
    outer loop
      vertex -10 10 -0.5
      vertex -10 13.5 0.5
      vertex -10 13.5 -0.5
    endloop
  endfacet
  facet normal -1 -0 0
    outer loop
      vertex -10 13.5 0.5
      vertex -10 10 -0.5
      vertex -10 10 0.5
    endloop
  endfacet
  facet normal 1 -0 0
    outer loop
      vertex 10 10 0.5
      vertex 10 13.5 -0.5
      vertex 10 13.5 0.5
    endloop
  endfacet
  facet normal 1 0 0
    outer loop
      vertex 10 13.5 -0.5
      vertex 10 10 0.5
      vertex 10 10 -0.5
    endloop
  endfacet
  facet normal 0 1 -0
    outer loop
      vertex 10 13.5 -0.5
      vertex -10 13.5 0.5
      vertex 10 13.5 0.5
    endloop
  endfacet
  facet normal 0 1 0
    outer loop
      vertex -10 13.5 0.5
      vertex 10 13.5 -0.5
      vertex -10 13.5 -0.5
    endloop
  endfacet
  facet normal 0 -1 0
    outer loop
      vertex -2.5 3.5 -0.5
      vertex 2.5 3.5 0
      vertex -2.5 3.5 0
    endloop
  endfacet
  facet normal 0 -1 -0
    outer loop
      vertex 2.5 3.5 0
      vertex -2.5 3.5 -0.5
      vertex 2.5 3.5 -0.5
    endloop
  endfacet
  facet normal -1 0 0
    outer loop
      vertex -10 -13.5 -0.5
      vertex -10 -10 0.5
      vertex -10 -10 -0.5
    endloop
  endfacet
  facet normal -1 -0 0
    outer loop
      vertex -10 -10 0.5
      vertex -10 -13.5 -0.5
      vertex -10 -13.5 0.5
    endloop
  endfacet
  facet normal 1 -0 0
    outer loop
      vertex 10 -13.5 0.5
      vertex 10 -10 -0.5
      vertex 10 -10 0.5
    endloop
  endfacet
  facet normal 1 0 0
    outer loop
      vertex 10 -10 -0.5
      vertex 10 -13.5 0.5
      vertex 10 -13.5 -0.5
    endloop
  endfacet
  facet normal 0 1 -0
    outer loop
      vertex 2.5 -3.5 -0.5
      vertex -2.5 -3.5 0
      vertex 2.5 -3.5 0
    endloop
  endfacet
  facet normal 0 1 0
    outer loop
      vertex -2.5 -3.5 0
      vertex 2.5 -3.5 -0.5
      vertex -2.5 -3.5 -0.5
    endloop
  endfacet
  facet normal 0 -1 0
    outer loop
      vertex -10 -13.5 -0.5
      vertex 10 -13.5 0.5
      vertex -10 -13.5 0.5
    endloop
  endfacet
  facet normal 0 -1 -0
    outer loop
      vertex 10 -13.5 0.5
      vertex -10 -13.5 -0.5
      vertex 10 -13.5 -0.5
    endloop
  endfacet
endsolid OpenSCAD_Model
